<svg width="14" height="14" viewBox="0 0 14 14" fill="none" xmlns="http://www.w3.org/2000/svg">
<path d="M13.7762 6.45605L8.72032 1.40005C8.57599 1.25572 8.38364 1.1765 8.17853 1.1765C7.9732 1.1765 7.78096 1.25584 7.63664 1.40005L7.1776 1.8592C7.03339 2.00329 6.95395 2.19576 6.95395 2.40098C6.95395 2.60608 7.03339 2.80504 7.1776 2.94914L10.1271 5.90516H0.756334C0.333834 5.90516 0 6.23592 0 6.65854V7.30765C0 7.73027 0.333834 8.09438 0.756334 8.09438H10.1606L7.17772 11.0669C7.03351 11.2112 6.95406 11.3985 6.95406 11.6037C6.95406 11.8087 7.03351 11.9986 7.17772 12.1428L7.63675 12.6005C7.78107 12.7448 7.97332 12.8235 8.17865 12.8235C8.38375 12.8235 8.57611 12.7438 8.72043 12.5995L13.7763 7.5436C13.921 7.39882 14.0005 7.20556 14 7.00011C14.0004 6.79398 13.921 6.6006 13.7762 6.45605V6.45605Z" fill="#428BCA"/>
</svg>
