
<svg width="251" height="88" xmlns="http://www.w3.org/2000/svg" fill="none"><path d="M147.40595 32.125c-3.437-2.9375-8.5-2.375-11.687.875l-1.188 1.25-1.25-1.25c-3.125-3.25-8.25-3.8125-11.687-.875-3.9376 3.375-4.1251 9.375-.625 13l12.125 12.5c.75.8125 2.062.8125 2.812 0l12.125-12.5c3.5-3.625 3.313-9.625-.625-13z" fill="#DC3232"/><g clip-path="url(#b)"><path fill-rule="evenodd" clip-rule="evenodd" d="M63.22266 53.95906v-5.0114c0-3.0113 1.197-5.8994 3.326-8.0287 2.129-2.1294 5.017-3.3256 8.029-3.3256 3.011 0 5.899 1.1962 8.028 3.3256 2.13 2.1293 3.326 5.0174 3.326 8.0287v5.0114h3.172c.569 0 1.115.2263 1.518.6291s.629.9491.629 1.5187v18.6996c0 .5696-.226 1.1159-.629 1.5187-.403.4028-.949.6291-1.518.6291h-29.059c-.57 0-1.116-.2263-1.519-.6291-.403-.4028-.629-.9491-.629-1.5187v-18.6925c0-.5696.226-1.1159.629-1.5186.403-.4028.949-.6291 1.519-.6291l3.178-.0072zm23.697 18.671v-14.3755h-24.713v14.3755h24.713zm-7.445-61.1389c1.604 0 3.143.6359 4.28 1.7684 1.136 1.1326 1.778 2.6694 1.783 4.2739v15.5425c0 .5696-.226 1.1159-.629 1.5186-.403.4028-.949.6291-1.518.6291-.57 0-1.116-.2263-1.519-.6291-.403-.4027-.629-.949-.629-1.5186v-4.2955h-73.696v32.8246c.002.4582.185.8971.51 1.2204.324.3234.764.5049 1.222.5049h41.774c.569 0 1.116.2263 1.518.6291.403.4028.63.9491.63 1.5187 0 .5696-.227 1.1159-.63 1.5187-.402.4027-.949.629-1.518.629h-41.745c-1.6-.0018-3.134-.6356-4.268-1.7633-1.135-1.1277-1.777-2.658-1.789-4.2575v-44.0716c.001-.7944.159-1.5809.463-2.3145.305-.7336.752-1.3999 1.314-1.961.563-.5611 1.23-1.0059 1.964-1.3091.735-.3031 1.521-.4587 2.316-.4577h70.167zm-50.687 38.8526c.569 0 1.116.2263 1.519.629.402.4028.629.9491.629 1.5187 0 .5696-.227 1.1159-.629 1.5187-.403.4028-.95.6291-1.519.6291h-10.395c-.57 0-1.116-.2263-1.519-.6291-.403-.4028-.629-.9491-.629-1.5187 0-.5696.226-1.1159.629-1.5187.403-.4027.949-.629 1.519-.629h10.395zm52.813 3.5795v-5.0113c-.058-1.8248-.824-3.5554-2.136-4.8256-1.311-1.2702-3.065-1.9804-4.891-1.9804s-3.58.7102-4.891 1.9804c-1.312 1.2702-2.077 3.0008-2.136 4.8256v5.0113h14.054zm-37.228-11.3185c.282 0 .562.0555.822.1634.261.108.498.2662.697.4656.199.1995.358.4362.466.6968.107.2606.163.5399.163.8219 0 .282-.056.5613-.163.8219-.108.2606-.267.4973-.466.6968-.199.1994-.436.3576-.697.4656-.26.1079-.54.1634-.822.1634h-25.98c-.282 0-.562-.0555-.822-.1634-.261-.108-.497-.2662-.697-.4656-.199-.1995-.357-.4362-.465-.6968-.108-.2606-.164-.5399-.164-.8219 0-.282.056-.5613.164-.8219.108-.2606.266-.4973.465-.6968.2-.1994.436-.3576.697-.4656.26-.1079.54-.1634.822-.1634h25.98zm-.243-7.8035c.57 0 1.116.2263 1.519.6291.402.4027.629.949.629 1.5186 0 .5697-.227 1.1159-.629 1.5187-.403.4028-.949.6291-1.519.6291h-25.995c-.57 0-1.116-.2263-1.519-.6291-.402-.4028-.629-.949-.629-1.5187 0-.5696.227-1.1159.629-1.5186.403-.4028.949-.6291 1.519-.6291h25.995zm37.077-10.3521v-6.9157c.003-.229-.04-.4562-.126-.6685s-.213-.4054-.374-.568c-.161-.1626-.353-.2914-.565-.3791-.212-.0876-.438-.1322-.667-.1312h-70.16c-.231-.0029-.461.0402-.675.1267-.214.0865-.41.2148-.574.3772-.165.1625-.295.3561-.384.5694-.089.2134-.135.4423-.135.6735v6.9157h73.66z" fill="#428BCA"/></g><path fill-rule="evenodd" clip-rule="evenodd" d="M205.18128 11.9387c-2.8944 1.5034-5.4296 3.6146-7.432 6.1891-2.0024 2.5746-3.4247 5.5515-4.1693 8.7269-5.4629 4.5264-9.39657 10.6278-11.2646 17.4719-1.86803 6.8441-1.57948 14.0979.8263 20.772 2.40578 6.6741 6.81168 12.4437 12.6168 16.522 5.8052 4.0782 12.727 6.2665 19.8215 6.2665 7.0944 0 14.0162-2.1883 19.8214-6.2665 5.8051-4.0783 10.211-9.8479 12.6168-16.522 2.4058-6.6741 2.6943-13.9279.8263-20.772-1.868-6.8441-5.8017-12.9455-11.2645-17.4719-.8341-3.5622-2.5204-6.8687-4.9142-9.6354-2.3937-2.7667-5.4233-4.911-8.8285-6.2486-.1174-.8676-.4612-1.6889-.9967-2.38146-.5355-.69256-1.2439-1.23194-2.054-1.56391-.0729-1.52801-.6596-2.98665-1.6651-4.13957-1.0054-1.15292-2.3707-1.93258-3.8746-2.21265-1.5039-.28007-3.0583-.04414-4.4113.66955-1.3531.71369-2.4256 1.86334-3.0436 3.26267-1.1342 2.3423-2.0096 4.80127-2.6107 7.33337z" fill="#395360"/><path d="M207.14658 38.1333h17.6v20.5334h-17.6V38.1333z" fill="#FBAA6F"/><path fill-rule="evenodd" clip-rule="evenodd" d="m218.68928 48.664-.176-.1173c-.4473-.3248-.7473-.814-.8339-1.36-.0867-.546.0471-1.104.3719-1.5514.3248-.4473.814-.7473 1.36-.8339.546-.0867 1.104.0471 1.5513.3719-.3628.0675-.7083.2075-1.0158.4116-.3074.2041-.5705.4682-.7735.7764-.2483.3229-.4208.6976-.5046 1.0962-.0838.3986-.0767.811.0206 1.2065zm-6.5707 0c.0838-.3952.0759-.8043-.0233-1.1959-.0992-.3915-.2869-.7551-.5487-1.0628-.2071-.3075-.4732-.5709-.7828-.7748-.3097-.204-.6568-.3444-1.0212-.4132.4474-.3248 1.0054-.4586 1.5514-.3719.546.0866 1.0352.3866 1.36.8339.3248.4474.4586 1.0054.3719 1.5514-.0866.546-.3866 1.0352-.8339 1.36-.0229.0259-.0474.0504-.0734.0733zM222.70798 44h.7773l-1.5693 7.0693-3.1387 9.4307h-6.292l-4.708-7.8613 1.5693-4.708c1.5694 2.0973 2.6254 3.4026 3.1387 3.9306.792.7774 3.9307.7774 5.5-.792 1.8312-2.1743 3.4151-4.5452 4.7227-7.0693z" fill="#DC7F3C"/><path fill-rule="evenodd" clip-rule="evenodd" d="M195.03198 42.5333h7.7146v-13.2h-5.9546c.4534-3.1721 1.6989-6.1787 3.6215-8.7422 1.9226-2.5634 4.4602-4.601 7.3785-5.9244 1.1146-4.88893 2.4395-8.18892 3.9746-9.90004l.264-.24933.1614-.14667c.4574-.36635 1.0041-.60428 1.584-.68933.6825-.10785 1.3818-.00532 2.0046.29395.6229.29926 1.1399.78108 1.4822 1.38136.3423.60028.4938 1.29056.4342 1.97902-.0596.68846-.3273 1.34246-.7677 1.875h-.088c-.128.15994-.2758.30287-.44.42534-.6921.723-1.334 1.4923-1.9213 2.3027 1.1696-1.2181 2.7237-1.99519 4.4-2.20004.337-.00241.6694.07819.968.23467.4433.25277.7699.66927.9097 1.16007.1398.4907.0818 1.0168-.1617 1.4653-.1961.3622-.5051.6506-.88.8213 3.8387.83 7.3274 2.8253 9.9893 5.713 2.6619 2.8876 4.3672 6.5269 4.8827 10.4203l.176 1.276h-5.6174v11.7334h7.084l2.6254 19.6973c-6.1894 3.8427-13.9383 5.764-23.2467 5.764s-17.0182-1.9262-23.1293-5.7787l2.552-19.712zm22.1906 13.772c3.784-6.248 5.676-9.9684 5.676-11.1613 0-3.2707-4.7666-5.9547-7.1426-5.9547-2.376 0-7.1427 2.6694-7.1427 5.9547 0 1.1929 1.8627 4.9182 5.588 11.176.1668.2599.3971.473.6691.6193.272.1462.5768.2208.8856.2167.2969.0145.5919-.0548.8512-.2001.2594-.1452.4727-.3605.6154-.6212v-.0294z" fill="#BDCFC8"/><path fill-rule="evenodd" clip-rule="evenodd" d="M239.13458 71.6027c-2.7297 3.6682-6.2792 6.6476-10.3651 8.7001-4.0859 2.0526-8.5951 3.1215-13.1675 3.1215-4.5725 0-9.0817-1.0689-13.1676-3.1215-4.0859-2.0525-7.6354-5.0319-10.3651-8.7001l1.232-8.9614c.4666.1858.9645.2804 1.4667.2787 1.0013.003 1.9699-.3561 2.7273-1.0111.7574-.6549 1.2525-1.5616 1.394-2.5529v1.7893c0 1.1048.4388 2.1642 1.22 2.9454.7811.7811 1.8406 1.22 2.9453 1.22s2.1642-.4389 2.9454-1.22c.7811-.7812 1.22-1.8406 1.22-2.9454v2.376c.0631 1.0639.5302 2.0635 1.3058 2.7945.7756.731 1.8011 1.138 2.8668 1.138 1.0658 0 2.0913-.407 2.8669-1.138.7756-.731 1.2427-1.7306 1.3058-2.7945 0 1.1048.4388 2.1642 1.22 2.9454.7811.7811 1.8406 1.22 2.9453 1.22s2.1642-.4389 2.9454-1.22c.7811-.7812 1.22-1.8406 1.22-2.9454v-2.3026c0 .547.1077 1.0886.317 1.594.2094.5053.5162.9645.903 1.3513.3867.3868.8459.6936 1.3513.9029.5054.2094 1.047.3171 1.594.3171.547 0 1.0886-.1077 1.594-.3171.5054-.2093.9645-.5161 1.3513-.9029.3868-.3868.6936-.846.903-1.3513.2093-.5054.317-1.047.317-1.594v-1.7894c.1307 1.0262.6386 1.9671 1.4248 2.6394.7862.6724 1.7945 1.0281 2.8286.998.5007-.0001.9973-.0895 1.4666-.264l1.188 8.8z" fill="#809EB0"/><path fill-rule="evenodd" clip-rule="evenodd" d="m192.91998 65.4867.3813-2.772c.4666.1857.9645.2803 1.4667.2786 1.0013.003 1.9699-.3561 2.7273-1.0111.7574-.6549 1.2525-1.5616 1.394-2.5529v1.7894c0 1.1047.4388 2.1641 1.22 2.9453.7811.7812 1.8406 1.22 2.9453 1.22s2.1642-.4388 2.9454-1.22c.7811-.7812 1.22-1.8406 1.22-2.9453v2.376c.0631 1.0639.5302 2.0635 1.3058 2.7944.7756.731 1.8011 1.1381 2.8668 1.1381 1.0658 0 2.0913-.4071 2.8669-1.1381.7756-.7309 1.2427-1.7305 1.3058-2.7944 0 1.1047.4388 2.1641 1.22 2.9453.7811.7811 1.8406 1.22 2.9453 1.22s2.1642-.4389 2.9454-1.22c.7811-.7812 1.22-1.8406 1.22-2.9453v-2.376c0 1.1047.4388 2.1641 1.22 2.9453.7811.7812 1.8406 1.22 2.9453 1.22s2.1642-.4388 2.9453-1.22c.7812-.7812 1.22-1.8406 1.22-2.9453v-1.7894c.1307 1.0262.6386 1.9671 1.4248 2.6394.7862.6724 1.7945 1.0281 2.8286.998.5007-.0001.9973-.0895 1.4666-.264l.3667 2.772c-.5902.2884-1.2401.4336-1.8969.4239-.6568-.0097-1.3021-.1741-1.8835-.4798-.5815-.3057-1.0826-.7442-1.4629-1.2798-.3804-.5356-.6291-1.1533-.726-1.803v1.7893c0 1.1047-.4389 2.1642-1.22 2.9454-.7812.7811-1.8406 1.22-2.9454 1.22-1.1047 0-2.1641-.4389-2.9453-1.22-.7812-.7812-1.22-1.8407-1.22-2.9454v2.376c0 1.1047-.4388 2.1642-1.22 2.9454-.7811.7811-1.8406 1.22-2.9453 1.22s-2.1642-.4389-2.9454-1.22c-.7811-.7812-1.22-1.8407-1.22-2.9454-.0631 1.0639-.5302 2.0635-1.3058 2.7945-.7756.7309-1.8011 1.138-2.8668 1.138-1.0658 0-2.0913-.4071-2.8669-1.138-.7756-.731-1.2427-1.7306-1.3058-2.7945V64.152c0 1.1047-.4388 2.1642-1.22 2.9453-.7811.7812-1.8406 1.22-2.9453 1.22s-2.1642-.4388-2.9454-1.22c-.7811-.7811-1.22-1.8406-1.22-2.9453v-1.7893c-.1268 1.0198-.6275 1.9563-1.4051 2.6282-.7776.6719-1.7768 1.0315-2.8042 1.0091-.6512-.001-1.2935-.1516-1.8773-.44v-.0733z" fill="#738E9E"/><path fill-rule="evenodd" clip-rule="evenodd" d="M236.15728 32.8387c-1.4667-4.2094-4.4-6.8787-6.9227-6.6147-3.2266.3373-4.0186 5.5147-3.3586 11.7333.66 6.2187 2.4933 11.088 5.7199 10.7507 3.2267-.3373 5.8667-5.7053 5.3974-11.7333-.1173 1.804-.7627 3.344-2.0387 3.4466-1.6426.1467-2.112-1.7453-2.332-4.136-.22-2.3906-.2053-4.4 1.4667-4.5173.4101-.0312.8208.0525 1.1861.2416.3652.1891.6706.4762.8819.8291z" fill="#86A196"/><path fill-rule="evenodd" clip-rule="evenodd" d="M235.01328 31.9c-.924-1.7747-2.2-2.86-3.5053-2.7133-2.2147.22-2.7427 3.7693-2.3027 8.0226.44 4.2534 1.716 7.5974 3.916 7.3334 1.628-.176 2.8307-2.2 3.168-4.9574-.1358.2328-.325.43-.5519.5753-.2269.1454-.4852.2347-.7534.2607-1.6427.1467-2.112-1.7453-2.332-4.136-.22-2.3906-.2053-4.4 1.4667-4.5173.3039-.0141.6077.0308.8946.132z" fill="#fff"/><path fill-rule="evenodd" clip-rule="evenodd" d="M194.82658 32.8387c1.4667-4.2094 4.4-6.8787 6.9227-6.6147 3.2267.3373 4.0187 5.5147 3.3587 11.7333-.66 6.2187-2.4934 11.088-5.72 10.7507-3.2267-.3373-5.8667-5.7053-5.3974-11.7333.1174 1.804.748 3.344 2.0387 3.4466 1.6427.1467 2.112-1.7453 2.3173-4.136.2054-2.3906.22-4.4-1.4666-4.5173-.412-.0397-.8269.0368-1.1976.2208-.3707.1841-.6824.4683-.8998.8205l.044.0294z" fill="#86A196"/><path fill-rule="evenodd" clip-rule="evenodd" d="M195.95598 31.9c.924-1.7747 2.2146-2.86 3.52-2.7133 2.2.22 2.7426 3.7693 2.288 8.0226-.4547 4.2534-1.7014 7.5974-3.916 7.3334-1.628-.176-2.8307-2.2-3.168-4.9574.139.2331.331.4302.5603.5755.2293.1452.4895.2345.7597.2605 1.628.1467 2.112-1.7453 2.3173-4.136.2053-2.3906.2053-4.4-1.4667-4.5173-.3165-.0266-.6353.0082-.9386.1027l.044.0293z" fill="#fff"/><path fill-rule="evenodd" clip-rule="evenodd" d="M208.61328 41.9907c-.0218-.337-.0218-.675 0-1.012 0-3.6227 1.7747-7.744 7.1427-7.744 5.368 0 7.1426 4.1213 7.1426 7.744-.0071.4946-.0711.9867-.1906 1.4666-1.1734-1.98-3.3734-3.1973-7.04-3.1973-3.476.044-5.7347 1.056-7.0547 2.7427z" fill="#F4F8FF"/><path fill-rule="evenodd" clip-rule="evenodd" d="m219.64258 13.4347-4.664-.2347 5.764-1.7013c.032.3958-.0559.792-.252 1.1372-.1962.3453-.4916.6236-.848.7988zm-5.1626-1.496-1.936 1.4666c1.2038-1.6877 2.1894-3.52095 2.9333-5.45597.4252-1.25892.585-2.59226.4693-3.916.5814.32172 1.0578.80394 1.3725 1.38911.3147.58516.4543 1.24853.4022 1.91089-.0906.84585-.4808 1.63138-1.1 2.21467-.771.7437-1.4867 1.5427-2.1413 2.3907z" fill="#86A196"/></svg>
