<svg width="289" height="88" fill="none" xmlns="http://www.w3.org/2000/svg"><path d="M185.406 31.914c-3.437-2.938-8.5-2.375-11.687.875l-1.188 1.25-1.25-1.25c-3.125-3.25-8.25-3.813-11.687-.875-3.938 3.375-4.125 9.375-.625 13l12.125 12.5c.75.813 2.062.813 2.812 0l12.125-12.5c3.5-3.625 3.313-9.625-.625-13Z" fill="#DC3232"/><path fill-rule="evenodd" clip-rule="evenodd" d="M243.181 11.38a22.64 22.64 0 0 0-11.601 14.916 34.48 34.48 0 1 0 44 0 22.598 22.598 0 0 0-13.743-15.884 4.986 4.986 0 0 0-3.05-3.945 6.794 6.794 0 0 0-5.54-6.352 6.79 6.79 0 0 0-7.455 3.932 35.806 35.806 0 0 0-2.611 7.333Z" fill="#395360"/><path d="M245.147 37.575h17.6v20.533h-17.6V37.575Z" fill="#FBAA6F"/><path fill-rule="evenodd" clip-rule="evenodd" d="m256.689 48.106-.176-.118a2.087 2.087 0 0 1-.462-2.911 2.085 2.085 0 0 1 2.912-.462 2.74 2.74 0 0 0-1.79 1.188 2.72 2.72 0 0 0-.484 2.303Zm-6.57 0a2.64 2.64 0 0 0-.572-2.259 2.81 2.81 0 0 0-1.804-1.188 2.083 2.083 0 0 1 3.283 2.013 2.087 2.087 0 0 1-.834 1.36.842.842 0 0 1-.073.074Zm10.589-4.664h.777l-1.569 7.069-3.139 9.43h-6.292l-4.708-7.86 1.57-4.709c1.569 2.098 2.625 3.403 3.138 3.931.792.777 3.931.777 5.5-.792a38.36 38.36 0 0 0 4.723-7.07Z" fill="#DC7F3C"/><path fill-rule="evenodd" clip-rule="evenodd" d="M233.032 41.975h7.715v-13.2h-5.955a19.068 19.068 0 0 1 11-14.667c1.115-4.889 2.439-8.189 3.975-9.9l.264-.249.161-.147a3.298 3.298 0 0 1 1.584-.689 3.405 3.405 0 0 1 3.921 3.654 3.401 3.401 0 0 1-.768 1.875h-.088c-.128.16-.276.303-.44.426a21.968 21.968 0 0 0-1.921 2.302 7.335 7.335 0 0 1 4.4-2.2c.337-.002.669.079.968.235a1.953 1.953 0 0 1 .748 2.625 1.89 1.89 0 0 1-.88.822 19.064 19.064 0 0 1 14.872 16.133l.176 1.276h-5.617v11.733h7.084l2.625 19.698c-6.189 3.842-13.938 5.764-23.247 5.764-9.308 0-17.018-1.926-23.129-5.779l2.552-19.712Zm22.191 13.772c3.784-6.248 5.676-9.968 5.676-11.161 0-3.271-4.767-5.955-7.143-5.955-2.376 0-7.143 2.67-7.143 5.955 0 1.193 1.863 4.918 5.588 11.176a1.82 1.82 0 0 0 1.555.836 1.582 1.582 0 0 0 1.467-.822v-.029Z" fill="#BDCFC8"/><path fill-rule="evenodd" clip-rule="evenodd" d="M277.135 71.044a29.343 29.343 0 0 1-23.533 11.822 29.336 29.336 0 0 1-23.533-11.822l1.232-8.961c.467.186.965.28 1.467.279a4.15 4.15 0 0 0 4.121-3.564v1.789a4.166 4.166 0 0 0 8.331 0v2.376a4.178 4.178 0 0 0 4.173 3.932 4.182 4.182 0 0 0 4.172-3.932 4.166 4.166 0 0 0 8.331 0V60.66a4.172 4.172 0 0 0 1.22 2.946 4.17 4.17 0 0 0 4.539.903 4.163 4.163 0 0 0 2.572-3.849v-1.789a4.162 4.162 0 0 0 4.253 3.637c.501 0 .997-.09 1.467-.264l1.188 8.8Z" fill="#809EB0"/><path fill-rule="evenodd" clip-rule="evenodd" d="m230.92 64.928.381-2.772c.467.186.965.28 1.467.279a4.15 4.15 0 0 0 4.121-3.564v1.79a4.166 4.166 0 0 0 8.331 0v2.375a4.178 4.178 0 0 0 4.173 3.933 4.178 4.178 0 0 0 4.172-3.933 4.166 4.166 0 0 0 8.331 0V60.66a4.166 4.166 0 0 0 8.331 0v-1.789a4.162 4.162 0 0 0 4.253 3.637c.501 0 .997-.09 1.467-.264l.366 2.772a4.18 4.18 0 0 1-5.969-3.138v1.789a4.166 4.166 0 0 1-8.331 0v2.376a4.166 4.166 0 0 1-8.33 0 4.18 4.18 0 0 1-8.346 0v-2.45a4.166 4.166 0 0 1-8.33 0v-1.789a4.15 4.15 0 0 1-4.21 3.638 4.254 4.254 0 0 1-1.877-.44v-.074Z" fill="#738E9E"/><path fill-rule="evenodd" clip-rule="evenodd" d="M274.157 32.28c-1.466-4.209-4.4-6.878-6.922-6.614-3.227.337-4.019 5.514-3.359 11.733.66 6.219 2.493 11.088 5.72 10.75 3.227-.337 5.867-5.705 5.397-11.733-.117 1.804-.762 3.344-2.038 3.447-1.643.147-2.112-1.745-2.332-4.136-.22-2.39-.206-4.4 1.466-4.517a2.214 2.214 0 0 1 2.068 1.07Z" fill="#86A196"/><path fill-rule="evenodd" clip-rule="evenodd" d="M273.013 31.342c-.924-1.775-2.2-2.86-3.505-2.714-2.215.22-2.743 3.77-2.303 8.023.44 4.253 1.716 7.597 3.916 7.333 1.628-.176 2.831-2.2 3.168-4.957a1.702 1.702 0 0 1-1.305.836c-1.643.147-2.112-1.745-2.332-4.136-.22-2.39-.205-4.4 1.467-4.517.304-.014.607.03.894.132Z" fill="#fff"/><path fill-rule="evenodd" clip-rule="evenodd" d="M232.827 32.28c1.466-4.209 4.4-6.878 6.922-6.614 3.227.337 4.019 5.514 3.359 11.733-.66 6.219-2.493 11.088-5.72 10.75-3.227-.337-5.867-5.705-5.397-11.733.117 1.804.748 3.344 2.038 3.447 1.643.147 2.112-1.745 2.318-4.136.205-2.39.22-4.4-1.467-4.517a2.218 2.218 0 0 0-2.097 1.041l.044.03Z" fill="#86A196"/><path fill-rule="evenodd" clip-rule="evenodd" d="M233.956 31.342c.924-1.775 2.215-2.86 3.52-2.714 2.2.22 2.743 3.77 2.288 8.023-.455 4.253-1.701 7.597-3.916 7.333-1.628-.176-2.831-2.2-3.168-4.957a1.733 1.733 0 0 0 1.32.836c1.628.147 2.112-1.745 2.317-4.136.206-2.39.206-4.4-1.466-4.517a2.463 2.463 0 0 0-.939.102l.044.03Z" fill="#fff"/><path fill-rule="evenodd" clip-rule="evenodd" d="M246.613 41.432a7.767 7.767 0 0 1 0-1.012c0-3.622 1.775-7.744 7.143-7.744s7.143 4.122 7.143 7.744a6.533 6.533 0 0 1-.191 1.467c-1.173-1.98-3.373-3.197-7.04-3.197-3.476.044-5.735 1.056-7.055 2.742Z" fill="#F4F8FF"/><path fill-rule="evenodd" clip-rule="evenodd" d="m257.643 12.876-4.664-.234 5.764-1.702a1.98 1.98 0 0 1-1.1 1.936Zm-5.163-1.496-1.936 1.467a24.587 24.587 0 0 0 2.933-5.456 9.636 9.636 0 0 0 .47-3.916 3.464 3.464 0 0 1 1.774 3.3 3.562 3.562 0 0 1-1.1 2.215 22.037 22.037 0 0 0-2.141 2.39Z" fill="#86A196"/><path fill-rule="evenodd" clip-rule="evenodd" d="M4.745 3C2.125 3 0 5.058 0 7.596v62.042c0 2.538 2.125 4.596 4.745 4.596h58.13c1.967 0 3.56-1.543 3.56-3.447 0-1.903-1.594-3.447-3.56-3.447H10.678c-1.966 0-3.559-1.543-3.559-3.446V29.426c0-1.904 1.593-3.447 3.559-3.447h88.975c2.621 0 4.746-2.058 4.746-4.596V7.596c0-2.538-2.125-4.596-4.746-4.596H4.745Zm111.516 48.83h-2.966v-4.021c0-8.25-6.905-14.937-15.422-14.937-8.518 0-15.423 6.687-15.423 14.936v4.022h-4.152c-2.62 0-4.745 2.057-4.745 4.595v22.98c0 2.537 2.124 4.595 4.745 4.595h37.963c2.621 0 4.745-2.058 4.745-4.596V56.426c0-2.539-2.124-4.596-4.745-4.596Zm-10.084-4.021v4.02H89.568v-4.02c0-4.442 3.718-8.043 8.305-8.043 4.586 0 8.304 3.6 8.304 8.042Zm-89.568-3.447c0-1.27 1.062-2.298 2.373-2.298h37.962c1.31 0 2.373 1.029 2.373 2.298 0 1.269-1.062 2.297-2.373 2.297H18.982c-1.31 0-2.373-1.028-2.373-2.297Zm0 10.34c0-1.269 1.062-2.298 2.373-2.298h14.236c1.31 0 2.372 1.029 2.372 2.298S34.528 57 33.218 57H18.982c-1.31 0-2.373-1.029-2.373-2.298Zm62.875 23.553v-20.68h35.591v20.68h-35.59Z" fill="#428BCA"/></svg>