<svg width="403" height="447" fill="none" xmlns="http://www.w3.org/2000/svg"><path d="M347.286 57.261c32.598 36.326 49.59 82.19 54.359 127.445 4.681 45.256-2.862 89.992-21.159 135.161-18.207 45.082-47.164 90.598-89.732 112.013-42.655 21.414-99.008 18.639-141.143-4.682-42.037-23.321-69.96-67.277-98.656-112.793C22.26 268.889-7.305 221.812 2.752 184.62c10.057-37.192 59.647-64.412 102.215-99.008C147.535 51.106 182.995 9.23 224.781 1.688c41.789-7.455 89.907 19.247 122.505 55.573Z" fill="#F0F0F0" fill-opacity=".5"/><path fill-rule="evenodd" clip-rule="evenodd" d="M15.897 67.368h264.952v255.091H15.897V67.368Z" fill="#E3F2FE"/><path fill-rule="evenodd" clip-rule="evenodd" d="M92.741 109.28H240.39v10.19H92.741v-10.19Zm0 45.433H240.39v10.19H92.741v-10.19Zm0 45.433H240.39v10.192H92.741v-10.192Z" fill="#B7D3EB"/><path d="m69.458 104.607-17.123 16.181-8.195-7.738m25.318 39.142-17.123 16.181-8.195-7.738m25.318 39.142-17.123 16.181-8.195-7.738" stroke="#B7D3EB" stroke-width="4.737" stroke-linecap="round" stroke-linejoin="round"/><path fill-rule="evenodd" clip-rule="evenodd" d="M92.741 245.581H240.39v10.191H92.741v-10.191Zm0 45.434H240.39v10.192H92.741v-10.192Z" fill="#fff"/><path fill-rule="evenodd" clip-rule="evenodd" d="M261.777 179.536c-16.301-3.254-36.56 16.993-35.143 46.874l19.665 4.084s16.898-50.675 15.478-50.958Z" fill="#46DBC9"/><path d="M224.444 212.542a59.904 59.904 0 0 0-.455 10.891m35.141-46.876c-10.323-2.06-22.233 5.303-29.221 18.566" stroke="#1B3C87" stroke-width="2.835" stroke-linecap="round" stroke-linejoin="round"/><path fill-rule="evenodd" clip-rule="evenodd" d="M299.589 167.313c61.541 0 73.446 71.154 65.271 170.275-26.682 11.19-92.24 16.928-121.217-.716-13.628-38.159-21.543-169.559 55.946-169.559Z" fill="#67DDE0"/><path fill-rule="evenodd" clip-rule="evenodd" d="M255.244 103.468c0-26.111 15.766-47.28 35.215-47.28 19.449 0 35.214 21.169 35.214 47.28s-15.766 47.28-35.214 47.28-35.215-21.168-35.215-47.28Z" fill="#fff"/><path fill-rule="evenodd" clip-rule="evenodd" d="M283.877 103.501c0-2.282.947-4.127 2.113-4.127s2.114 1.847 2.114 4.127-.946 4.125-2.114 4.125-2.113-1.847-2.113-4.125Z" fill="#1B3C87"/><path d="M274.154 111.184c-.068 2.548-.806 8.051-4.357 11.608m12.403 10.265c2.952-.401 6.639-1.542 8.991-5.031m57.2 115.165c1.993 5.687 6.38 20.832 6.38 20.832s-31.073-15.949-45.679-23.321m-36.391 5.276-3.709 12.23m15.476-51.012-4.937 16.273m29.757 120.691c-25.98 1.66-53.785-.873-70.055-10.78-10.177-28.493-17.167-108.97 12.202-147.909" stroke="#1B3C87" stroke-width="2.835" stroke-linecap="round" stroke-linejoin="round"/><path d="M269.063 170.016c7.373-3.965 16.02-6.195 26.115-6.195 61.54 0 73.447 71.155 65.27 170.276-4.06 1.702-9.019 3.279-14.612 4.667" stroke="#1B3C87" stroke-width="2.835" stroke-linecap="round" stroke-linejoin="round"/><path d="M359.182 332.777c0 6.616-1.026 105.643-1.026 105.643" stroke="#1B3C87" stroke-width="2.835" stroke-linecap="round" stroke-linejoin="round"/><path fill-rule="evenodd" clip-rule="evenodd" d="M283.434 228.036c-3.71 0-19.752 2.043-10.67 16.876 5.203 8.501 7.351 6.056 9.534 3.367 1.699.885 4.32 2.973 6.009 4.373-.013.028-.022.056-.035.084 4.589 3.579 65.146 56.447 77.6 59.616 12.454 3.17 26.46-9.147 31.843-18.412 5.943-10.216-5.325-51.666-7.315-56.237-1.989-4.571-38.442 10.126-38.442 10.126s5.903 17.658 7.46 24.957c-3.434-1.932-57.593-28.404-64.647-36.542-.011.024-.025.066-.038.088-2.581-2.639-8.444-8.296-11.299-8.296Z" fill="#fff"/><path d="m238.398 331.812-.075 95.737m45.949-34.975c3.369 14.402 7.063 30.365 10.629 45.846" stroke="#1B3C87" stroke-width="2.835" stroke-linecap="round" stroke-linejoin="round"/><path fill-rule="evenodd" clip-rule="evenodd" d="M320.628 123.046c-.199 2.405-5.411 42.969-3.541 57.403-4.477 3.809-35.454 4.369-34.816-1.336 1.069-9.557 3.342-24.391 1.402-31.946" fill="#fff"/><path d="M279.535 174.904c1.069-9.556 2.652-19.892 1.595-28.405m36.344-21.866c-.202 2.405-4.994 37.173-3.124 51.607-1.763 1.503-7.654 2.5-14.099 2.801" stroke="#1B3C87" stroke-width="2.835" stroke-linecap="round" stroke-linejoin="round"/><path d="M303.157 142.243c-4.663 3.06-9.902 4.771-15.441 4.771-12.267 0-23.069-8.42-29.374-21.193m-4.787-14.557a62.928 62.928 0 0 1-1.054-11.525c0-26.112 15.766-47.28 35.215-47.28 19.45 0 35.214 21.168 35.214 47.28 0 11.623-3.124 22.266-8.305 30.5" stroke="#1B3C87" stroke-width="2.835" stroke-linecap="round" stroke-linejoin="round"/><path fill-rule="evenodd" clip-rule="evenodd" d="M322.651 129.509c3.95.715 10.625-20.624 11.988-33.495 2.425-22.929-21.623-52.101-39.587-53.905-3.527-.353-7.51 3.276-5.347 9.349-4.357-4.57-15.778-10.614-25.642-11.883-14.986-1.925-22.227 8.034-22.227 12.47s2.691 18.322 8.069 22.612c-4.346-.054-8.213.345-8.696 3.864-1.492 10.853 4.66 20.658 15.069 19.656.726-6.114 2.035-12.032 4.177-16.015 1.739 15.668 41.573 10.417 41.496 13.033-.302 10.077 11.658 10.078 12.073 10.327 9.235 5.538 2.329 22.843 8.627 23.987Z" fill="#FFB957"/><path d="M238.536 51.692c.933 5.985 3.487 15.125 7.669 18.463-4.344-.054-8.213.345-8.696 3.865-1.283 9.347 3.1 17.912 10.987 19.476m71.476-35.272c-8.074-11.174-19.189-19.67-28.618-20.616-3.527-.354-7.512 3.274-5.349 9.347-4.35-4.57-15.775-10.614-25.641-11.881-6.491-.83-11.528.56-15.155 2.771m70.715 81.064c.219 3.238.789 5.689 3.029 6.096 3.948.717 10.625-20.622 11.986-33.493.399-3.767.083-7.702-.803-11.655M254.98 81.92a26.364 26.364 0 0 1 1.777-4.26c1.739 15.669 41.572 10.417 41.489 13.033-.047 1.597.208 2.94.686 4.073" stroke="#1B3C87" stroke-width="2.835" stroke-linecap="round" stroke-linejoin="round"/><path fill-rule="evenodd" clip-rule="evenodd" d="M305.7 100.839a8.915 8.915 0 0 1 11.482 1.107 8.917 8.917 0 0 1 .788 11.509 8.923 8.923 0 0 1-7.195 3.631 9.085 9.085 0 0 1-1.613-.145" fill="#fff"/><path d="M304.889 98.978a8.92 8.92 0 1 1 5.075 16.247 9.07 9.07 0 0 1-1.611-.144" stroke="#1B3C87" stroke-width="2.835" stroke-linecap="round" stroke-linejoin="round"/><path fill-rule="evenodd" clip-rule="evenodd" d="m199.823 225.273 64.746 10.34-15.656 98.031-64.745-10.339 15.655-98.032Z" fill="#B7D3EB"/><path d="m181.161 317.089 15.655-98.031 64.746 10.342-5.042 31.595m-5.769 36.104-4.845 30.331-44.156-7.054" stroke="#1B3C87" stroke-width="2.835" stroke-linecap="round" stroke-linejoin="round"/><path fill-rule="evenodd" clip-rule="evenodd" d="M181.225 304.633c-2.946-22.281-.679-36.859 12.009-41.013 5.121-1.676.076 30.892-1.964 36.254-2.04 5.363-7.629-.755-10.045 4.759Z" fill="#fff"/><path d="M179.174 280.65c-1.408-4.62-.604-14.56 15.264-20.185m-16.269 33.844c-1.406-4.619-.603-14.562 15.265-20.185m-14.361 31.935c-1.406-4.619-.603-14.562 15.264-20.186m107.407-183.011a8.953 8.953 0 0 1 3.148-3.884m91.624 184.215c-.269 1.924-.726 3.532-1.417 4.719-5.387 9.265-19.396 21.583-31.843 18.413-12.447-3.17-72.27-57.284-77.6-59.617m102.127-15.033c1.024 2.354 4.508 14.482 6.837 27.09m-103.178-26.598c-4.407-12.372-13.905-8.98-23.153-.915m12.936 2.509c-2.593-.19-9.014 2.245-11.948 4.761m13.824 2.955c-2.801-.061-7.365 2.191-10.871 3.908" stroke="#1B3C87" stroke-width="2.835" stroke-linecap="round" stroke-linejoin="round"/><path fill-rule="evenodd" clip-rule="evenodd" d="M342.449 175.044c28.911-9.828 56.71 52.625 55.349 59.172-1.361 6.547-46.868 19.751-52.114 15.617-5.245-4.134-19.98-69.096-3.235-74.789Z" fill="#46DBC9"/><path d="M353.451 245.751c-5.637.941-10 1.093-11.419-.025-2.305-1.819-6.445-15.386-8.939-30.506m14.846-45.122c25.346 3.648 47.423 54.16 46.207 60.01-.743 3.571-14.625 9.128-27.937 12.758" stroke="#1B3C87" stroke-width="2.835" stroke-linecap="round" stroke-linejoin="round"/></svg>