<svg width="120" height="80" fill="none" xmlns="http://www.w3.org/2000/svg"><g clip-path="url(#a)"><path d="m81.934 66.508.613-2.125c.727-2.526.458-4.857-.768-6.576-1.145-1.58-3.012-2.508-5.298-2.617l-43.26-.55a.84.84 0 0 1-.774-1.145 1.147 1.147 0 0 1 1.002-.768l43.68-.573c5.154-.235 10.79-4.439 12.755-9.57l2.486-6.507a1.534 1.534 0 0 0 .068-.882 28.45 28.45 0 0 0-54.693-2.944 12.801 12.801 0 0 0-20.047 13.414A18.174 18.174 0 0 0 .195 66.525a.842.842 0 0 0 .83.727H80.92a1.048 1.048 0 0 0 1.014-.744Z" fill="#F4801F"/><path d="M96.35 36.57c-.381 0-.782.01-1.202.034a.505.505 0 0 0-.184.04.67.67 0 0 0-.435.458l-1.718 5.877c-.733 2.525-.464 4.857.767 6.575a6.673 6.673 0 0 0 5.293 2.617l9.227.573a.827.827 0 0 1 .797.736.856.856 0 0 1-.047.404 1.144 1.144 0 0 1-1.002.767l-9.582.573c-5.207.24-10.814 4.44-12.779 9.565l-.693 1.81a.516.516 0 0 0 .453.7h33.008a.887.887 0 0 0 .882-.671 23.686 23.686 0 0 0-3.929-20.68 23.675 23.675 0 0 0-18.844-9.379h-.011Z" fill="#F9AB41"/></g><defs><clipPath id="a"><path fill="#fff" d="M0 13h120v54.264H0z"/></clipPath></defs></svg>