<svg width="160" height="160" fill="none" xmlns="http://www.w3.org/2000/svg"><rect width="160" height="160" rx="5" fill="#E3E3E3" fill-opacity=".4"/><g filter="url(#a)"><rect x="18" y="36" width="124" height="101" rx="3" fill="#fff" shape-rendering="crispEdges"/><rect x="32" y="50" width="45" height="8" rx="2" fill="#959595" fill-opacity=".7"/><rect width="96" height="6" rx="2" transform="matrix(-1 0 0 1 128 65)" fill="#959595" fill-opacity=".3"/><rect x="32" y="78" width="96" height="6" rx="2" fill="#959595" fill-opacity=".3"/><rect width="68.87" height="6" rx="2" transform="matrix(-1 0 0 1 128 91)" fill="#959595" fill-opacity=".3"/><rect width="20.87" height="6" rx="2" transform="matrix(-1 0 0 1 52.87 91)" fill="#959595" fill-opacity=".3"/><rect x="32" y="104" width="68.87" height="6" rx="2" fill="#959595" fill-opacity=".3"/><rect x="107.13" y="104" width="20.87" height="6" rx="2" fill="#959595" fill-opacity=".3"/><rect x="32" y="117" width="96" height="6" rx="2" fill="#959595" fill-opacity=".3"/></g><rect x="53" y="15" width="12" height="12" rx="6" fill="#428BCA" fill-opacity=".6"/><rect x="68" y="15" width="40" height="7" rx="3.5" fill="#474747" fill-opacity=".3"/><rect x="68" y="24" width="20" height="2" rx="1" fill="#474747" fill-opacity=".2"/><rect x="50" y="146" width="60" height="4" rx="2" fill="#959595" fill-opacity=".3"/><defs><filter id="a" x="17" y="36" width="126" height="103" filterUnits="userSpaceOnUse" color-interpolation-filters="sRGB"><feFlood flood-opacity="0" result="BackgroundImageFix"/><feColorMatrix in="SourceAlpha" values="0 0 0 0 0 0 0 0 0 0 0 0 0 0 0 0 0 0 127 0" result="hardAlpha"/><feOffset dy="1"/><feGaussianBlur stdDeviation=".5"/><feComposite in2="hardAlpha" operator="out"/><feColorMatrix values="0 0 0 0 0 0 0 0 0 0 0 0 0 0 0 0 0 0 0.15 0"/><feBlend in2="BackgroundImageFix" result="effect1_dropShadow_24_34"/><feBlend in="SourceGraphic" in2="effect1_dropShadow_24_34" result="shape"/></filter></defs></svg>