<svg width="624" height="552" fill="none" xmlns="http://www.w3.org/2000/svg"><path d="M329.124 527.521c-70.68 3.704-137.469 27.166-197.875 10.656-60.406-16.511-114.198-73.182-124.392-136.1-10.203-62.731 23.012-131.683 66.056-178.341 42.848-46.666 95.604-71.031 146.602-89.531 50.997-18.501 100.227-31.228 163.954-34.476 63.727-3.249 141.817 3.159 167.097 43.954 25.28 40.794-2.169 115.698-11.283 190.156-9.114 74.458.178 148.193-32.502 177.082-32.68 28.889-106.967 12.905-177.657 16.6Z" fill="#fff"/><path d="M293 347.153c3.922.574 14.486 2.288 14.486 2.288L324.447 357 347 316l-28.331 16.706-14.031-7.939" fill="#fff"/><path d="M224.983 300.688c35.404 9.182 73.017 20.01 73.017 20.01-2.457 5.247-10.9 24.649-10.9 24.649L104 363c2.862-9.975 44.138-75 62.125-75 4.854 0 16.698 2.379 31.395 5.862M316 317l10 26m-27-25-14 32m19-32-15 32m31-35 10 26m-40 3.153c3.922.574 14.486 2.288 14.486 2.288L321.447 354 344 313l-28.331 16.706-14.031-7.939" stroke="#1B3C87" stroke-width="2" stroke-linecap="round" stroke-linejoin="round"/><path d="M557 352H185v8h372v-8Z" fill="#2D6CA2"/><path d="m204 548 47-188m-1 191 47-191m26 106-26-106m47 191-13-53m-32 53-47-191m159 188 46-188m32 58 14-58m-47 191 18-72m77 72-47-191m1 191-47-191" stroke="#2D6CA2" stroke-width="2" stroke-linecap="round" stroke-linejoin="round"/><path d="M12 438h138m-69 93v12m0-46v8m0-67v50m-22 55h44" stroke="#1B3C87" stroke-width="2" stroke-linecap="round" stroke-linejoin="round"/><path d="M44 394.884C44.456 399.973 52.968 441 79.954 441c40.117 0 105.442-50.629 127.219-67.634C221.089 370.534 326 340.49 326 340.49c-1.936-5.798-6.061-16.49-6.061-16.49s-96.175 6.089-113.221 8.929c-17.047 2.839-96.9 27.645-100.771 28.758C102.076 362.801 44 394.884 44 394.884Z" fill="#3B3744"/><path d="M107 366c2.862-9.975 44.145-75 62.134-75C187.123 291 301 323.69 301 323.69c-2.458 5.247-10.901 24.649-10.901 24.649L107 366Z" fill="#3B3744"/><path d="M217 328c-5.739.555-10.25 1.073-12.88 1.501-17.083 2.851-97.148 27.76-101.029 28.878C99.21 359.497 41 391.692 41 391.692c.457 5.11 8.991 46.308 36.047 46.308 19.256 0 44.303-11.652 67.582-25.675M171 395c14.098-9.843 25.93-19.044 33.081-24.619C218.007 367.548 323 337.495 323 337.495c-1.937-5.8-6.066-16.495-6.066-16.495s-32.908 2.085-63.633 4.38" stroke="#1B3C87" stroke-width="2" stroke-linecap="round" stroke-linejoin="round"/><path d="M94.97 283.318c3.23 4.071 8.484 13.524 9.681 16.396 6.211-2.518 63.235-23.368 68.105-24.409 4.871-1.04 25.091-5.148 27.244 9.8-3.704 3.113-12.188.354-18.519 1.734-6.331 1.379-74.572 41.007-79.359 42.07C97.334 329.972 70 321.371 70 321.371s12.82-36.032 24.97-38.053Z" fill="#fff"/><path d="M64.033 243c14.189 0 32.563 26.025 35.967 36.219-1.947 4.155-9.432 11.185-11.67 11.776-2.237.59-40.627-47.995-24.297-47.995Z" fill="#67DDE0"/><path d="M95.134 271.883c.72 1.4 1.343 2.849 1.866 4.336-1.947 4.155-9.432 11.185-11.67 11.776-2.237.59-40.627-47.995-24.297-47.995 9.194 0 20.15 10.928 27.642 21.394" stroke="#1B3C87" stroke-width="2" stroke-linecap="round" stroke-linejoin="round"/><path d="M167 288.783c-21.068 11.181-64.284 36.284-68.03 37.127-4.735 1.062-31.97-7.591-31.97-7.591S79.737 282.05 91.852 280c3.214 4.099 8.444 13.618 9.635 16.51 1.499-.622 6.054-2.345 12.115-4.608M135 284c16.012-5.638 32.061-11.172 34.563-11.705 4.936-1.056 25.269-5.046 27.437 9.606-3.73 3.052-12.274.348-18.65 1.7" stroke="#1B3C87" stroke-width="2" stroke-linecap="round" stroke-linejoin="round"/><path d="M65.544 247.431c25.474 18.337 34.24 72.152 43.456 112.926-7.74 8.656-55.227 38.839-65.604 36.516-23.099-56.018-51.33-155.872 2.315-155.872a33.211 33.211 0 0 1 19.833 6.43" fill="#67DDE0"/><path d="M37.996 388C15.37 331.029-9.076 238 42.832 238c11.038 0 19.896 4.903 27.168 13.047M81.609 270C93.37 294.752 99.576 329.413 106 357.758c-3.714 4.133-16.495 13.164-30 21.242" stroke="#1B3C87" stroke-width="2" stroke-linecap="round" stroke-linejoin="round"/><path d="M9.062 314.773c-.362 5.422-5.577 83.072-3.627 110.335.916 12.829 4.92 21.992 5.001 26.378C10.746 467.082 22.891 475 27.575 475s5.223-1.627 5.223-3.532c0-1.904-9.774-22.561-9.774-30.194 0-7.633 12.492-118.365 13.925-124.888 1.433-6.524-27.887-1.613-27.887-1.613Z" fill="#fff"/><path d="M20.003 436c1.124-16.387 12.536-116.447 13.943-122.626 1.489-6.501-28.102-1.607-28.102-1.607A2419.084 2419.084 0 0 0 3 361.607M2.075 397c-.157 9.963-.082 18.761.364 24.965.923 12.866 4.956 22.055 5.038 26.454C7.789 464.059 20.022 472 24.739 472c4.718 0 5.261-1.632 5.261-3.542 0-.887-2.143-5.872-4.427-11.708" stroke="#1B3C87" stroke-width="2" stroke-linecap="round" stroke-linejoin="round"/><path d="M30.465 255.018c17.314.881 15.045 60.977 9.448 63.189-5.598 2.211-32.397-.518-35.196-4.297-2.799-3.78 1.952-60.075 25.748-58.892Z" fill="#67DDE0"/><path d="M25 222.067c1.969 5.944 4.372 20.293 4.319 24.659 3.113 1.524 12.125 2.073 15.681-.602-1.42-3.871-2.839-13.091-2.732-19.088.107-5.998-17.268-4.969-17.268-4.969Z" fill="#fff"/><path d="M41 240.463a74.658 74.658 0 0 1-1.924-16.427C39.18 218.032 22 219.068 22 219.068c1.947 5.943 4.324 20.29 4.27 24.656 2.023 1.006 6.558 1.585 10.429 1.105" stroke="#1B3C87" stroke-width="2" stroke-linecap="round" stroke-linejoin="round"/><path d="M39 233c11.046 0 20-8.954 20-20s-8.954-20-20-20-20 8.954-20 20 8.954 20 20 20Z" fill="#fff"/><path d="M53 220c-2.34 3.984-5.87 7.034-10.034 8.67a19.049 19.049 0 0 1-12.966.369M21.134 223a19.704 19.704 0 0 1-4.52-8.365 19.554 19.554 0 0 1-.06-9.483 19.695 19.695 0 0 1 4.413-8.42 20 20 0 0 1 7.87-5.421 20.221 20.221 0 0 1 9.52-1.173 20.137 20.137 0 0 1 8.976 3.343 19.844 19.844 0 0 1 6.37 7.09 19.598 19.598 0 0 1 2.074 12.146" stroke="#1B3C87" stroke-width="2" stroke-linecap="round" stroke-linejoin="round"/><path d="M57.853 197.018c-6.984 9.602-22.52 10.429-25.642 10.429S28.349 216 24.33 216C20.31 216 10 213.43 10 201.635c0-8.723 6.984-13.251 16.849-16.249 7.753-2.356 24.27-7.386 29.33-7.386C64.649 178 69 186.206 69 194.249c0 6.92-2.082 10.2-10.166 13.051" fill="#FFB957"/><path d="M29 181.05c8.318-2.571 20.192-6.05 24.329-6.05C61.699 175 66 183.402 66 191.637c0 7.086-2.057 10.444-10.047 13.363M37 203.888a46.91 46.91 0 0 1-7.65.724c-3.168 0-3.867 8.388-7.916 8.388S7 210.479 7 198.911A13.37 13.37 0 0 1 7.555 195" stroke="#1B3C87" stroke-width="2" stroke-linecap="round" stroke-linejoin="round"/><path d="M55 194c-2.576 3.566-6.033 6.332-10 8" stroke="#1B3C87" stroke-width="2" stroke-linecap="round" stroke-linejoin="round"/><path d="M25 220c2.761 0 5-2.462 5-5.5s-2.239-5.5-5-5.5-5 2.462-5 5.5 2.239 5.5 5 5.5Z" fill="#fff"/><path d="M23.276 218a5.525 5.525 0 0 1-2.486-.591 5.194 5.194 0 0 1-1.9-1.63 4.837 4.837 0 0 1-.864-2.285 4.758 4.758 0 0 1 .373-2.401 5.036 5.036 0 0 1 1.523-1.952 5.41 5.41 0 0 1 2.315-1.042 5.555 5.555 0 0 1 2.56.112c.83.236 1.587.662 2.203 1.24m6 106.416c-9.169.748-28.917-1.759-31.288-5.023C.384 309.01.766 294.983 4.128 281M12 261.699c3.89-6.045 8.968-10.028 15.469-9.678 14.077.745 15.22 40.78 12.109 56.979" stroke="#1B3C87" stroke-width="2" stroke-linecap="round" stroke-linejoin="round"/><path d="m330.602 338 12.195-4.354L357 332.328 341.543 289l-5.486 27.599L324 321.575" fill="#fff"/><path d="m334 309-1.024 5.098L321 319m27-4-9.848-29L335 302.64M328 336l12.011-4.606L354 330M46 209c0 2.012 1.192 5.646 3 7" stroke="#1B3C87" stroke-width="2" stroke-linecap="round" stroke-linejoin="round"/><path d="M51.5 210c.828 0 1.5-1.119 1.5-2.5s-.672-2.5-1.5-2.5-1.5 1.119-1.5 2.5.672 2.5 1.5 2.5Z" fill="#1B3C87"/><path d="M38 219c1.056 1.26 3.972 3 6 3" stroke="#1B3C87" stroke-width="2" stroke-linecap="round" stroke-linejoin="round"/><path d="M514.87 26.18H258.85V282.2h256.02V26.18Z" fill="#B7D3EB"/><path d="M420.38 72.49H298.76c-10.228 0-18.52 8.292-18.52 18.52v4.5c0 10.228 8.292 18.52 18.52 18.52h121.62c10.228 0 18.52-8.292 18.52-18.52v-4.5c0-10.228-8.292-18.52-18.52-18.52Zm52.33 41.53c11.471 0 20.77-9.299 20.77-20.77s-9.299-20.77-20.77-20.77-20.77 9.299-20.77 20.77 9.299 20.77 20.77 20.77Z" fill="#fff"/><path d="M280.24 137.36h213.24m-213.24 30.68h213.24m-213.24 30.68h108.04" stroke="#fff" stroke-width="2" stroke-linecap="round" stroke-linejoin="round"/><path d="M172 1h156.53M172 35.01h73.02" stroke="#428BCA" stroke-width="2" stroke-linecap="round" stroke-linejoin="round"/><path d="M623.01 183.89H484.76V365.7h138.25V183.89Z" fill="#E3F2FE"/><path d="M623.01 183.89H484.76v25.18h138.25v-25.18Z" fill="#B7D3EB"/><path d="M500.1 202.53a6.23 6.23 0 1 0 0-12.46 6.23 6.23 0 0 0 0 12.46Zm18.97 0a6.23 6.23 0 1 0 0-12.46 6.23 6.23 0 0 0 0 12.46Zm18.98 0a6.23 6.23 0 1 0 0-12.46 6.23 6.23 0 0 0 0 12.46Z" fill="#428BCA"/><path d="M539.72 229.62h-38.2v53h38.2v-53Z" fill="#B7D3EB"/><path d="M552.97 229.62h51.8M501.52 311.7h103.25m-103.25 27.36h103.25m-51.8-82.08h51.8m-51.8 27.36h51.8" stroke="#428BCA" stroke-width="2" stroke-linecap="round" stroke-linejoin="round"/></svg>