<svg width="624" height="552" fill="none" xmlns="http://www.w3.org/2000/svg"><path d="M329.124 527.521c-70.68 3.704-137.469 27.166-197.875 10.656-60.4064-16.511-114.198-73.182-124.39219-136.1C-3.34627 339.346 29.8695 270.394 72.9135 223.736c42.8475-46.666 95.6035-71.031 146.6015-89.531 50.997-18.501 100.227-31.228 163.954-34.4761 63.727-3.2485 141.817 3.1591 167.097 43.9541 25.28 40.794-2.169 115.698-11.283 190.156-9.114 74.458.178 148.193-32.502 177.082-32.68 28.889-106.967 12.905-177.657 16.6Z" fill="#fff"/><path d="M293 347.153c3.922.574 14.486 2.288 14.486 2.288L324.447 357 347 316l-28.331 16.706-14.031-7.939" fill="#fff"/><path d="M224.983 300.688c35.404 9.182 73.017 20.01 73.017 20.01-2.457 5.247-10.9 24.649-10.9 24.649L104 363c2.862-9.975 44.138-75 62.125-75 4.854 0 16.698 2.379 31.395 5.862M316 317l10 26M299 318l-14 32M304 318l-15 32M320 315l10 26M290 344.153c3.922.574 14.486 2.288 14.486 2.288L321.447 354 344 313l-28.331 16.706-14.031-7.939" stroke="#1B3C87" stroke-width="2" stroke-linecap="round" stroke-linejoin="round"/><path d="M557 352H185v8h372v-8Z" fill="#2D6CA2"/><path d="m204 548 47-188M250 551l47-191M323 466l-26-106M344 551l-13-53M299 551l-47-191M411 548l46-188M489 418l14-58M456 551l18-72M551 551l-47-191M505 551l-47-191" stroke="#2D6CA2" stroke-width="2" stroke-linecap="round" stroke-linejoin="round"/><path d="M12 438h138M81 531v12M81 497v8M81 438v50M59 543h44" stroke="#1B3C87" stroke-width="2" stroke-linecap="round" stroke-linejoin="round"/><path d="M44 394.884C44.4559 399.973 52.968 441 79.9544 441c40.1166 0 105.4416-50.629 127.2186-67.634C221.089 370.534 326 340.49 326 340.49c-1.936-5.798-6.061-16.49-6.061-16.49s-96.175 6.089-113.221 8.929c-17.047 2.839-96.9 27.645-100.771 28.758C102.076 362.801 44 394.884 44 394.884Z" fill="#3B3744"/><path d="M107 366c2.862-9.975 44.145-75 62.134-75C187.123 291 301 323.69 301 323.69c-2.458 5.247-10.901 24.649-10.901 24.649L107 366Z" fill="#3B3744"/><path d="M217 328c-5.739.555-10.25 1.073-12.88 1.501-17.083 2.851-97.148 27.76-101.029 28.878C99.2096 359.497 41 391.692 41 391.692c.457 5.11 8.9911 46.308 36.0467 46.308 19.2558 0 44.3033-11.652 67.5823-25.675M171 395c14.098-9.843 25.93-19.044 33.081-24.619C218.007 367.548 323 337.495 323 337.495c-1.937-5.8-6.066-16.495-6.066-16.495s-32.908 2.085-63.633 4.38" stroke="#1B3C87" stroke-width="2" stroke-linecap="round" stroke-linejoin="round"/><path d="M94.9702 283.318c3.2295 4.071 8.4838 13.524 9.6808 16.396 6.211-2.518 63.235-23.368 68.105-24.409 4.871-1.04 25.091-5.148 27.244 9.8-3.704 3.113-12.188.354-18.519 1.734-6.331 1.379-74.572 41.007-79.359 42.07C97.3339 329.972 70 321.371 70 321.371s12.8201-36.032 24.9702-38.053Z" fill="#fff"/><path d="M64.0328 243c14.1892 0 32.563 26.025 35.9672 36.219-1.9474 4.155-9.4322 11.185-11.6695 11.776C86.0933 291.585 47.703 243 64.0328 243Z" fill="#67DDE0"/><path d="M95.1344 271.883c.7191 1.4 1.3425 2.849 1.8656 4.336-1.9474 4.155-9.4322 11.185-11.6695 11.776C83.0933 288.585 44.703 240 61.0328 240c9.1943 0 20.1502 10.928 27.6425 21.394" stroke="#1B3C87" stroke-width="2" stroke-linecap="round" stroke-linejoin="round"/><path d="M167 288.783c-21.068 11.181-64.284 36.284-68.0303 37.127C94.2346 326.972 67 318.319 67 318.319S79.7369 282.05 91.852 280c3.2142 4.099 8.444 13.618 9.635 16.51 1.499-.622 6.054-2.345 12.115-4.608M135 284c16.012-5.638 32.061-11.172 34.563-11.705 4.936-1.056 25.269-5.046 27.437 9.606-3.73 3.052-12.274.348-18.65 1.7" stroke="#1B3C87" stroke-width="2" stroke-linecap="round" stroke-linejoin="round"/><path d="M65.5439 247.431C91.0182 265.768 99.7843 319.583 109 360.357c-7.74 8.656-55.2267 38.839-65.6037 36.516-23.0992-56.018-51.33071-155.872 2.3151-155.872 7.1328-.04 14.0882 2.215 19.8325 6.43" fill="#67DDE0"/><path d="M37.9964 388c-22.6265-56.971-47.07285-150 4.8352-150 11.0388 0 19.8969 4.903 27.1684 13.047M81.609 270c11.7614 24.752 17.9667 59.413 24.391 87.758-3.714 4.133-16.4947 13.164-30 21.242" stroke="#1B3C87" stroke-width="2" stroke-linecap="round" stroke-linejoin="round"/><path d="M9.06233 314.773c-.36198 5.422-5.57736 83.072-3.62713 110.335.91601 12.829 4.9199 21.992 5.0012 26.378C10.7466 467.082 22.8912 475 27.5747 475s5.2228-1.627 5.2228-3.532c0-1.904-9.7733-22.561-9.7733-30.194 0-7.633 12.4918-118.365 13.9249-124.888 1.4331-6.524-27.88677-1.613-27.88677-1.613Z" fill="#fff"/><path d="M20.0026 436c1.1241-16.387 12.5361-116.447 13.943-122.626 1.4889-6.501-28.10191-1.607-28.10191-1.607-.19355 2.817-1.71217 25.204-2.84369 49.84M2.07461 397c-.15626 9.963-.08185 18.761.3646 24.965.92266 12.866 4.95558 22.055 5.03743 26.454C7.78915 464.059 20.0219 472 24.7393 472 29.4568 472 30 470.368 30 468.458c0-.887-2.143-5.872-4.4273-11.708" stroke="#1B3C87" stroke-width="2" stroke-linecap="round" stroke-linejoin="round"/><path d="M30.4651 255.018c17.314.881 15.0448 60.977 9.4475 63.189-5.5974 2.211-32.39676-.518-35.19545-4.297-2.79869-3.78 1.95152-60.075 25.74795-58.892Z" fill="#67DDE0"/><path d="M25 222.067c1.9687 5.944 4.3724 20.293 4.319 24.659 3.1133 1.524 12.1251 2.073 15.681-.602-1.4193-3.871-2.8386-13.091-2.7318-19.088C42.375 221.038 25 222.067 25 222.067Z" fill="#fff"/><path d="M41 240.463c-1.2476-5.386-1.893-10.896-1.9241-16.427C39.1815 218.032 22 219.068 22 219.068c1.9468 5.943 4.3237 20.29 4.2708 24.656 2.0223 1.006 6.5572 1.585 10.4282 1.105" stroke="#1B3C87" stroke-width="2" stroke-linecap="round" stroke-linejoin="round"/><path d="M39 233c11.0457 0 20-8.954 20-20s-8.9543-20-20-20-20 8.954-20 20 8.9543 20 20 20Z" fill="#fff"/><path d="M53 220c-2.3405 3.984-5.8702 7.034-10.0339 8.67-4.1636 1.637-8.7249 1.766-12.9661.369M21.1337 223c-2.1705-2.385-3.7217-5.255-4.5196-8.365-.7979-3.109-.8186-6.364-.0603-9.483.7583-3.119 2.2729-6.009 4.4129-8.42 2.1401-2.412 4.8415-4.272 7.8711-5.421 3.0295-1.148 6.2963-1.551 9.5185-1.173 3.2222.378 6.3029 1.525 8.9765 3.343 2.6736 1.817 4.8597 4.251 6.3697 7.09 1.5099 2.84 2.2985 6 2.2975 9.208-.0026.983-.0771 1.965-.2229 2.938" stroke="#1B3C87" stroke-width="2" stroke-linecap="round" stroke-linejoin="round"/><path d="M57.8531 197.018c-6.9837 9.602-22.52 10.429-25.6423 10.429-3.1223 0-3.8614 8.553-7.8813 8.553C20.3097 216 10 213.43 10 201.635c0-8.723 6.9838-13.251 16.8485-16.249C34.6016 183.03 51.1182 178 56.1788 178 64.6483 178 69 186.206 69 194.249c0 6.92-2.0816 10.2-10.1664 13.051" fill="#FFB957"/><path d="M29 181.05c8.3183-2.571 20.192-6.05 24.3288-6.05C61.6992 175 66 183.402 66 191.637c0 7.086-2.0572 10.444-10.0475 13.363M37 203.888c-2.5235.45-5.0829.692-7.6499.724-3.1679 0-3.8668 8.388-7.9158 8.388-4.0491 0-14.43388-2.521-14.43388-14.089-.0105-1.322.17623-2.639.55456-3.911" stroke="#1B3C87" stroke-width="2" stroke-linecap="round" stroke-linejoin="round"/><path d="M55 194c-2.5759 3.566-6.033 6.332-10 8" stroke="#1B3C87" stroke-width="2" stroke-linecap="round" stroke-linejoin="round"/><path d="M25 220c2.7614 0 5-2.462 5-5.5s-2.2386-5.5-5-5.5-5 2.462-5 5.5 2.2386 5.5 5 5.5Z" fill="#fff"/><path d="M23.2755 218c-.8673-.001-1.7211-.204-2.4858-.591-.7648-.388-1.417-.947-1.8991-1.63-.482-.683-.779-1.468-.8647-2.285-.0858-.817.0424-1.642.3732-2.401.3308-.759.8539-1.429 1.5233-1.952.6693-.522 1.4642-.88 2.3144-1.042.8502-.163 1.7296-.124 2.5603.112.8308.236 1.5874.662 2.2029 1.24M33 315.867c-9.1689.748-28.91736-1.759-31.28838-5.023C.383556 309.01.766221 294.983 4.12766 281M12 261.699c3.89-6.045 8.9681-10.028 15.469-9.678 14.0766.745 15.2193 40.78 12.1089 56.979" stroke="#1B3C87" stroke-width="2" stroke-linecap="round" stroke-linejoin="round"/><path d="m330.602 338 12.195-4.354L357 332.328 341.543 289l-5.486 27.599L324 321.575" fill="#fff"/><path d="m334 309-1.024 5.098L321 319M348 315l-9.848-29L335 302.64M328 336l12.011-4.606L354 330M46 209c0 2.012 1.1925 5.646 3 7" stroke="#1B3C87" stroke-width="2" stroke-linecap="round" stroke-linejoin="round"/><path d="M51.5 210c.8284 0 1.5-1.119 1.5-2.5s-.6716-2.5-1.5-2.5-1.5 1.119-1.5 2.5.6716 2.5 1.5 2.5Z" fill="#1B3C87"/><path d="M38 219c1.0559 1.26 3.9721 3 6 3" stroke="#1B3C87" stroke-width="2" stroke-linecap="round" stroke-linejoin="round"/><path d="M514.87 26.18H258.85V282.2h256.02V26.18Z" fill="#B7D3EB"/><path d="M420.38 72.49H298.76c-10.228 0-18.52 8.2917-18.52 18.52v4.5c0 10.228 8.292 18.52 18.52 18.52h121.62c10.228 0 18.52-8.292 18.52-18.52v-4.5c0-10.2283-8.292-18.52-18.52-18.52ZM472.71 114.02c11.471 0 20.77-9.299 20.77-20.77s-9.299-20.77-20.77-20.77-20.77 9.299-20.77 20.77 9.299 20.77 20.77 20.77Z" fill="#fff"/><path d="M280.24 137.36h213.24M280.24 168.04h213.24M280.24 198.72h108.04" stroke="#fff" stroke-width="2" stroke-linecap="round" stroke-linejoin="round"/><path d="M172 1h156.53M172 35.01h73.02" stroke="#428BCA" stroke-width="2" stroke-linecap="round" stroke-linejoin="round"/><path d="M623.01 183.89H484.76V365.7h138.25V183.89Z" fill="#E3F2FE"/><path d="M623.01 183.89H484.76v25.18h138.25v-25.18Z" fill="#B7D3EB"/><path d="M500.1 202.53c3.441 0 6.23-2.789 6.23-6.23 0-3.441-2.789-6.23-6.23-6.23-3.441 0-6.23 2.789-6.23 6.23 0 3.441 2.789 6.23 6.23 6.23ZM519.07 202.53c3.441 0 6.23-2.789 6.23-6.23 0-3.441-2.789-6.23-6.23-6.23-3.441 0-6.23 2.789-6.23 6.23 0 3.441 2.789 6.23 6.23 6.23ZM538.05 202.53c3.441 0 6.23-2.789 6.23-6.23 0-3.441-2.789-6.23-6.23-6.23-3.441 0-6.23 2.789-6.23 6.23 0 3.441 2.789 6.23 6.23 6.23Z" fill="#428BCA"/><path d="M539.72 229.62h-38.2v53h38.2v-53Z" fill="#B7D3EB"/><path d="M552.97 229.62h51.8M501.52 311.7h103.25M501.52 339.06h103.25M552.97 256.98h51.8M552.97 284.34h51.8" stroke="#428BCA" stroke-width="2" stroke-linecap="round" stroke-linejoin="round"/></svg>