<svg width="332" height="311" fill="none" xmlns="http://www.w3.org/2000/svg"><path fill-rule="evenodd" clip-rule="evenodd" d="M22.601 164.773c0-80.158 64.98-145.14 145.139-145.14 80.158 0 145.138 64.98 145.138 145.14 0 80.159-64.98 145.138-145.138 145.138-80.159 0-145.139-64.981-145.139-145.138Z" fill="#E3F2FE"/><path fill-rule="evenodd" clip-rule="evenodd" d="M32.231 215.614c4.084-3.77 18.414-16.923 21.38-18.263 2.966-1.341 37.361 37.029 33.964 39.775-3.397 2.745-21.377 19.303-28.138 23.513-13.506-14.7-22.897-31.581-27.206-45.025Z" fill="#fff"/><path d="M30.856 212.277c4.084-3.77 17.907-16.52 20.877-17.861 2.97-1.341 37.613 39.869 34.216 42.613-3.397 2.745-21.429 20.345-26.757 23.719" stroke="#1B3C87" stroke-width="1.852" stroke-linecap="round" stroke-linejoin="round"/><path fill-rule="evenodd" clip-rule="evenodd" d="M121.332 172.274c19.71 29.975-28.694 67.593-36.103 69.754-7.41 2.161-39.31-41.544-37-47.3 2.31-5.756 49.303-58.652 73.103-22.454Z" fill="#67DDE0"/><path d="M70.819 166.602c15.648-10.856 35.124-17.12 47.909 2.323 19.709 29.975-28.695 67.593-36.104 69.754-7.409 2.161-39.31-41.549-37-47.299.448-1.114 2.571-3.997 5.877-7.656" stroke="#1B3C87" stroke-width="1.852" stroke-linecap="round" stroke-linejoin="round"/><path fill-rule="evenodd" clip-rule="evenodd" d="M160.933 146.85c-22.199-.133-44.042 4.138-54.808 12.502-17.483 13.585-29.11 97.56-24.097 122.55 24.017 17.604 53.644 28.006 85.703 28.006 25.309 0 49.1-6.486 69.816-17.874 3.667-31.203-5.372-120.405-19.669-131.257-12.189-9.253-34.745-13.794-56.945-13.927Z" fill="#67DDE0"/><path d="M86.359 195.144c4.206-18.466 9.838-33.865 16.51-39.048 21.532-16.727 87.373-17.083 111.753 1.424 15.166 11.516 25.09 111.396 18.862 136.309M78.846 279.06c-1.006-6.358-1.07-16.669-.31-28.712" stroke="#1B3C87" stroke-width="1.852" stroke-linecap="round" stroke-linejoin="round"/><path fill-rule="evenodd" clip-rule="evenodd" d="M254.223 282.622c-3.093-3.093-24.414-32.172-26.816-34.909-2.402-2.738 43.181-40.537 45.985-37.232 2.803 3.306 14.043 19.035 19.284 27.683-4.212 7.59-27.499 36.982-38.453 44.458Z" fill="#fff"/><path d="M255.257 280.319c-2.586-3.527-25.693-35.36-28.096-38.098-2.404-2.739 43.182-40.537 45.986-37.232 2.803 3.306 16.23 21.681 20.854 30.673" stroke="#1B3C87" stroke-width="1.852" stroke-linecap="round" stroke-linejoin="round"/><path fill-rule="evenodd" clip-rule="evenodd" d="M205.239 156.311c23.018-15.794 78.575 38.451 78.437 54.621-.139 16.17-49.536 45.553-57.764 41.31-9.069-4.673-55.994-71.709-20.673-95.931Z" fill="#67DDE0"/><path d="M191.368 191.612c-3.103-15.035-1.111-29.458 11.703-38.246 23.023-15.79 78.576 38.454 78.436 54.628-.139 16.175-49.534 45.552-57.763 41.31-2.633-1.359-8.457-7.972-14.533-17.269" stroke="#1B3C87" stroke-width="1.852" stroke-linecap="round" stroke-linejoin="round"/><path d="M90.721 41.732c22.322-14.002 48.725-22.098 77.019-22.098 80.158 0 145.138 64.98 145.138 145.139s-64.98 145.138-145.138 145.138c-80.159 0-145.139-64.981-145.139-145.138 0-19.38 3.798-37.872 10.69-54.773" stroke="#1B3C87" stroke-width="1.852" stroke-linecap="round" stroke-linejoin="round"/><path fill-rule="evenodd" clip-rule="evenodd" d="M292.499 188.929c.143-4.17 8.268-5.862 18.15-3.779 9.881 2.082 17.777 7.15 17.635 11.319-.142 4.169-8.27 5.861-18.151 3.778-9.882-2.082-17.78-7.149-17.634-11.318Zm2.931-15.951c.142-4.169 8.268-5.861 18.15-3.779 9.881 2.083 17.777 7.15 17.634 11.319-.142 4.169-8.269 5.862-18.151 3.779-9.881-2.082-17.771-7.15-17.633-11.319Zm-.379-16.484c.143-4.169 8.269-5.861 18.151-3.779 9.883 2.081 17.777 7.15 17.634 11.319-.143 4.169-8.27 5.861-18.151 3.779-9.882-2.083-17.777-7.15-17.634-11.319Z" fill="#fff"/><path d="M299.112 150.444c3.248-.6 7.594-.472 12.348.529 9.881 2.083 17.777 7.151 17.634 11.32-.096 2.815-3.833 4.501-9.293 4.655m-23.124.8c3.257-1.41 8.851-1.62 15.161-.29 9.882 2.083 17.777 7.15 17.634 11.319-.103 3.04-4.448 4.759-10.631 4.666m-20.135-.842c2.913-.232 6.427.013 10.198.808 9.881 2.082 17.776 7.149 17.634 11.319-.089 2.605-3.297 4.242-8.103 4.597" stroke="#1B3C87" stroke-width="1.852" stroke-linecap="round" stroke-linejoin="round"/><path fill-rule="evenodd" clip-rule="evenodd" d="M3.763 162.545c.143-4.169 8.27-5.86 18.151-3.778 9.882 2.083 17.777 7.15 17.634 11.32-.143 4.17-8.269 5.86-18.151 3.778-9.883-2.083-17.777-7.151-17.634-11.32Zm2.934-15.95c.142-4.169 8.27-5.861 18.15-3.778 9.882 2.082 17.777 7.15 17.635 11.322-.143 4.172-8.269 5.86-18.15 3.778-9.882-2.082-17.778-7.152-17.635-11.322Zm-.379-16.485c.143-4.169 8.27-5.86 18.151-3.778 9.882 2.082 17.777 7.15 17.634 11.319-.143 4.169-8.269 5.861-18.15 3.778-9.881-2.082-17.777-7.152-17.635-11.319Z" fill="#fff"/><path d="M8.363 134.052c-3.041-2.007-4.875-4.249-4.806-6.278.143-4.169 8.27-5.86 18.151-3.778 4.427.931 8.454 2.464 11.54 4.242m-20.701 24.394c-5.24-2.426-8.706-5.599-8.611-8.373.143-4.169 8.27-5.861 18.15-3.779 4.118.868 7.89 2.254 10.88 3.877m-17.67 26.334c-8.26-2.406-14.42-6.796-14.294-10.483.143-4.169 8.27-5.861 18.151-3.779 5.78 1.219 10.88 3.458 14.09 5.941" stroke="#1B3C87" stroke-width="1.852" stroke-linecap="round" stroke-linejoin="round"/><path fill-rule="evenodd" clip-rule="evenodd" d="M183.141 114.958c-.94 5.352-5.276 26.904-1.953 50.264-3.833 2.897-26.181 4.99-32.328 0 .218-9.474.434-28.423-.433-33.269-.867-4.845 35.658-22.347 34.714-16.995Z" fill="#fff"/><path d="M146.35 162.115c.217-9.475.434-28.424-.434-33.269-.868-4.846 35.655-22.345 34.715-16.996-.939 5.35-5.276 26.904-1.953 50.265-1.735 1.309-7.262 2.455-13.364 2.855" stroke="#1B3C87" stroke-width="1.852" stroke-linecap="round" stroke-linejoin="round"/><path fill-rule="evenodd" clip-rule="evenodd" d="M110.161 83.946c2.127-26.092 21.709-45.817 43.736-44.057 22.027 1.76 38.161 24.337 36.033 50.43-2.128 26.091-21.708 45.82-43.736 44.061-22.027-1.758-38.161-24.342-36.033-50.434Z" fill="#fff"/><path d="M167.255 125.429c-6.811 4.646-14.778 7.043-23.093 6.379-10.258-.82-19.242-6.155-25.691-14.256m-8.559-16.994c-1.666-5.962-2.331-12.454-1.783-19.18 2.127-26.091 21.709-45.816 43.737-44.056 22.029 1.76 38.161 24.337 36.034 50.429-.642 7.862-2.867 15.145-6.267 21.436" stroke="#1B3C87" stroke-width="1.852" stroke-linecap="round" stroke-linejoin="round"/><path fill-rule="evenodd" clip-rule="evenodd" d="M148.886 74.416c.304-2.82 1.586-4.994 2.862-4.857 1.277.138 2.064 2.537 1.759 5.356-.305 2.819-1.587 4.994-2.862 4.856-1.276-.139-2.064-2.536-1.759-5.355Z" fill="#1B3C87"/><path d="M131.334 76.78c-1.013 4.365-3.819 9.353-7.171 12m15.356 15.164a4.642 4.642 0 0 1 2.863-4.285 4.637 4.637 0 1 1-2.863 4.285v0Z" stroke="#1B3C87" stroke-width="1.852" stroke-linecap="round" stroke-linejoin="round"/><path fill-rule="evenodd" clip-rule="evenodd" d="M178.302 91.062c-2.801-.2-10.839-11.668-2.593-19.552-4.046-3.941-27.846-21.756-56.44-10.708-3.715-3.778-13.855-18.968-5.102-25.517 8.752-6.55 12.408 1.37 13.542 4.518-2.644-8.31-1.155-30.666 21.104-30.913 22.259-.248 46.19 64.789 45.223 76.46-.967 11.67-1.016 13.247-15.734 5.712Z" fill="#FFB957"/><path d="M177.336 39.134c8.42 17.455 13.977 36.13 13.501 41.874-.969 11.671-1.016 13.248-15.735 5.713-2.799-.2-10.838-11.668-2.592-19.552-3.201-3.12-18.774-14.927-39.303-14.243m-17.138 3.536c-3.715-3.778-13.855-18.969-5.102-25.518 8.753-6.55 12.414 1.37 13.542 4.519-2.644-8.312-1.154-30.667 21.104-30.915 5.586-.062 11.283 3.992 16.662 10.283" stroke="#1B3C87" stroke-width="1.852" stroke-linecap="round" stroke-linejoin="round"/><path fill-rule="evenodd" clip-rule="evenodd" d="M171.943 96.603a10.2 10.2 0 0 1 6.294-9.42 10.2 10.2 0 0 1 13.904 7.43 10.199 10.199 0 0 1-17.212 9.2 10.197 10.197 0 0 1-2.986-7.21Z" fill="#fff"/><path d="M176.954 85.958a10.195 10.195 0 0 1 14.454 9.576 10.193 10.193 0 0 1-5.091 8.517 10.19 10.19 0 0 1-9.922.156" stroke="#1B3C87" stroke-width="1.852" stroke-linecap="round" stroke-linejoin="round"/><path fill-rule="evenodd" clip-rule="evenodd" d="M8.221 43.778a4 4 0 0 0-4 4V92a4 4 0 0 0 4 4h65a4 4 0 0 0 4-4V47.778a4 4 0 0 0-4-4h-65Zm35.167 21.889c0 .16-.015.316-.044.467A6.669 6.669 0 0 1 40.888 79a6.667 6.667 0 0 1-2.456-12.866 2.514 2.514 0 0 1-.044-.467V61.5a2.5 2.5 0 0 1 5 0v4.167Z" fill="#DF2A4A" fill-opacity=".08"/><path d="M9.221 45.278h65v-3h-65v3Zm67.5 2.5V92h3V47.778h-3Zm-2.5 46.722h-65v3h65v-3ZM6.721 92V47.778h-3V92h3Zm15.643-69.111c0-10.71 8.669-19.389 19.357-19.389v-3c-12.35 0-22.357 10.026-22.357 22.389h3ZM41.721 3.5c10.689 0 19.358 8.678 19.358 19.389h3C64.078 10.526 54.07.5 41.72.5v3ZM19.364 22.889v20.889h3v-20.89h-3Zm41.715 0v20.889h3v-20.89h-3ZM9.22 94.5a2.5 2.5 0 0 1-2.5-2.5h-3a5.5 5.5 0 0 0 5.5 5.5v-3Zm67.5-2.5a2.5 2.5 0 0 1-2.5 2.5v3a5.5 5.5 0 0 0 5.5-5.5h-3Zm-2.5-46.722a2.5 2.5 0 0 1 2.5 2.5h3a5.5 5.5 0 0 0-5.5-5.5v3Zm-65-3a5.5 5.5 0 0 0-5.5 5.5h3a2.5 2.5 0 0 1 2.5-2.5v-3Z" fill="#DF2A4A"/><path fill-rule="evenodd" clip-rule="evenodd" d="M45.344 69.134a2.49 2.49 0 0 0 .044-.467V64.5a2.5 2.5 0 0 0-5 0v4.167c0 .16.015.316.043.467A6.669 6.669 0 0 0 42.889 82a6.667 6.667 0 0 0 2.456-12.866Z" fill="#fff"/><path d="M43.388 67.667h-1 1Zm-.044.467-.982-.186a1 1 0 0 0 .614 1.115l.368-.93Zm.044-4.634h1-1Zm-5 0h1-1Zm0 4.167h-1 1Zm.043.467.37.93a1 1 0 0 0 .613-1.116l-.983.186Zm9.124 6.2h1-1Zm-5.167-6.667c0 .097-.01.19-.026.281l1.965.372c.04-.213.061-.431.061-.653h-2Zm0-4.167v4.167h2V63.5h-2Zm-1.5-1.5a1.5 1.5 0 0 1 1.5 1.5h2a3.5 3.5 0 0 0-3.5-3.5v2Zm-1.5 1.5a1.5 1.5 0 0 1 1.5-1.5v-2a3.5 3.5 0 0 0-3.5 3.5h2Zm0 4.167V63.5h-2v4.167h2Zm.026.281a1.513 1.513 0 0 1-.026-.281h-2c0 .222.02.44.06.653l1.966-.372Zm-4.193 6.385a5.67 5.67 0 0 1 3.58-5.27l-.738-1.859a7.67 7.67 0 0 0-4.842 7.13h2ZM40.888 80a5.667 5.667 0 0 1-5.667-5.667h-2A7.667 7.667 0 0 0 40.888 82v-2Zm5.667-5.667A5.667 5.667 0 0 1 40.888 80v2a7.667 7.667 0 0 0 7.667-7.667h-2Zm-3.58-5.27a5.669 5.669 0 0 1 3.58 5.27h2a7.669 7.669 0 0 0-4.842-7.129l-.737 1.86Z" fill="#DF2A4A"/></svg>