<svg width="300" height="107" fill="none" xmlns="http://www.w3.org/2000/svg"><path d="M176.922 46.914c-3.437-2.938-8.5-2.375-11.687.875l-1.188 1.25-1.25-1.25c-3.125-3.25-8.25-3.813-11.687-.875-3.938 3.375-4.125 9.375-.625 13l12.125 12.5c.75.813 2.062.813 2.812 0l12.125-12.5c3.5-3.625 3.313-9.625-.625-13Z" fill="#DC3232"/><path fill-rule="evenodd" clip-rule="evenodd" d="M4.745 21C2.125 21 0 23.058 0 25.596v62.042c0 2.538 2.125 4.596 4.745 4.596h58.13c1.967 0 3.56-1.543 3.56-3.447 0-1.903-1.594-3.447-3.56-3.447H10.678c-1.966 0-3.559-1.543-3.559-3.446V47.426c0-1.904 1.593-3.447 3.559-3.447h88.975c2.621 0 4.746-2.058 4.746-4.596V25.596c0-2.538-2.125-4.596-4.746-4.596H4.745Zm111.516 48.83h-2.966v-4.021c0-8.25-6.905-14.937-15.422-14.937-8.518 0-15.423 6.687-15.423 14.936v4.022h-4.152c-2.62 0-4.745 2.057-4.745 4.595v22.98c0 2.537 2.124 4.595 4.745 4.595h37.963c2.621 0 4.745-2.058 4.745-4.596V74.426c0-2.539-2.124-4.596-4.745-4.596Zm-10.084-4.021v4.02H89.568v-4.02c0-4.442 3.718-8.043 8.305-8.043 4.586 0 8.304 3.601 8.304 8.043Zm-89.568-3.447c0-1.27 1.062-2.298 2.373-2.298h37.962c1.31 0 2.373 1.029 2.373 2.298 0 1.269-1.062 2.297-2.373 2.297H18.982c-1.31 0-2.373-1.028-2.373-2.297Zm0 10.34c0-1.269 1.062-2.298 2.373-2.298h14.236c1.31 0 2.372 1.029 2.372 2.298 0 1.269-1.062 2.298-2.372 2.298H18.982c-1.31 0-2.373-1.029-2.373-2.298Zm62.875 23.553v-20.68h35.591v20.68H79.484Z" fill="#428BCA"/><path fill-rule="evenodd" clip-rule="evenodd" d="M249.563 23.97c22.422 0 40.598 18.177 40.59 40.599 0 22.422-18.177 40.598-40.599 40.59-22.388 0-40.548-18.117-40.59-40.506-.051-22.422 18.083-40.632 40.505-40.683h.094Z" fill="#008BF6"/><path fill-rule="evenodd" clip-rule="evenodd" d="M230.979 99.236a5.831 5.831 0 0 1 2.873.33 39.66 39.66 0 0 0 14.855 2.898c10.83 0 21.168-4.5 28.566-12.406a4.302 4.302 0 0 1 3.008-1.17 39.207 39.207 0 0 1-30.718 15.008 38.785 38.785 0 0 1-18.584-4.66Z" fill="#57B6FF"/><path fill-rule="evenodd" clip-rule="evenodd" d="M249.563 23.97c1.262 0 2.483 0 3.711.178a7.424 7.424 0 0 1-2.932 0 6.117 6.117 0 0 1-.779-.178Zm-23.761 73.672a40.7 40.7 0 0 1-14.703-19.549c.28-.017.56-.017.839 0h1.263a6.68 6.68 0 0 1 1.771-4.178 5.105 5.105 0 0 1 1.83-.855 7.847 7.847 0 0 1-2.372-4.763c0-.635-.094-1.296-.094-1.983l-4.228-2.118a4.111 4.111 0 0 1-1.161-.932 40.396 40.396 0 0 1 4.618-17.575l3.627-.33a63.234 63.234 0 0 1 3.008-8.898 41.243 41.243 0 0 1 8.644-6.856 40.777 40.777 0 0 1 2.856-.39 65.673 65.673 0 0 1 12.177.153c1.5.119 3.008.271 4.406.449.187-.483.398-.966.636-1.432 1.025-1.924 6.406-1.229 9.024-.814a11.79 11.79 0 0 0-.694-2.898c.932.17 1.821.373 2.694.585.246.924.39 1.873.424 2.83 2.695.644 6.949 1.966 7.16 3.898.026.5.026 1 0 1.5 1.416.39 2.839.78 4.254 1.229a78.683 78.683 0 0 1 8.33 3.008 40.67 40.67 0 0 1 7.034 42.26l-1.899.152c-.254.636-.559 1.22-.83 1.788-1.5 3.085-5.339 4.288-8.448 4.856a57.327 57.327 0 0 1-13.033.449 119.817 119.817 0 0 1-15.44-2.076 114.932 114.932 0 0 1-15.033-3.924 66.211 66.211 0 0 1-8.567-3.44v7.093c1.288.83 2.322 2 3.008 3.364a11.454 11.454 0 0 0 6.491-2.763c1.026-.83 3.865.39 2.678 3.805a11.483 11.483 0 0 1-10.219 8.33l-.043.034-.008-.008Z" fill="#006CBF"/><path fill-rule="evenodd" clip-rule="evenodd" d="M249.563 32.52c17.719 0 32.082 14.363 32.082 32.083 0 17.719-14.363 32.082-32.082 32.082-17.702 0-32.057-14.338-32.083-32.04-.025-17.72 14.321-32.108 32.04-32.133h.043v.008Z" fill="#fff"/><path fill-rule="evenodd" clip-rule="evenodd" d="M234.75 80.008a12.127 12.127 0 0 1-13.922 2.119l-4.585 9.11c6.525 3.592 18.27 4.075 21.592-7.365 1.051-3.686-2.034-4.796-3.085-3.864Z" fill="#385661"/><path fill-rule="evenodd" clip-rule="evenodd" d="M235.657 81.195a13.447 13.447 0 0 1-14.152 2.83l-3.321 6.584a17.633 17.633 0 0 0 7.423 1.5 10.971 10.971 0 0 0 10.838-8.567 2.386 2.386 0 0 0-.153-2.076.924.924 0 0 0-.644-.271h.009Z" fill="#385661"/><path fill-rule="evenodd" clip-rule="evenodd" d="M231.31 83.932a13.5 13.5 0 0 1-9.805 0l-1.364 2.754a11.75 11.75 0 0 0 11.203-1.17c.839-.72.661-1.576-.034-1.576v-.008Z" fill="#598291"/><path fill-rule="evenodd" clip-rule="evenodd" d="M259.274 85.474a16.424 16.424 0 0 1 5.728 9.355l7.762-2.135c-1.983-5.805-7.821-11.5-13.533-12.025l.043 4.813v-.008Z" fill="#385661"/><path fill-rule="evenodd" clip-rule="evenodd" d="M260.714 84.787a18 18 0 0 1 5.381 8.237l4.737-1.305c-1.881-4.016-5.355-8.236-9.88-9.804l-.238 2.872Z" fill="#385661"/><path fill-rule="evenodd" clip-rule="evenodd" d="m268.595 92.346 2.237-.601a20.63 20.63 0 0 0-6.372-7.94c-.297.27-.178.898.152 1.245a16.044 16.044 0 0 1 3.983 7.296Zm-30.667 2.153c0-.661-.119-1.356-.153-2.017a2.78 2.78 0 0 1 1.263-2.78 23.092 23.092 0 0 1 6.406-2.093l1.712-.406h.525l1.712.364a23.76 23.76 0 0 1 6.406 2.093 2.791 2.791 0 0 1 1.28 2.83c0 .78-.093 1.5-.178 2.314 0 .364 0 .72-.119 1.084a32.277 32.277 0 0 1-7.219.797 31.746 31.746 0 0 1-11.635-2.178V94.5Z" fill="#598291"/><path fill-rule="evenodd" clip-rule="evenodd" d="M239.25 94.982a53.97 53.97 0 0 1-.212-2.585 1.502 1.502 0 0 1 .661-1.61 29.118 29.118 0 0 1 7.694-2.27 29.052 29.052 0 0 1 7.686 2.27c.526.347.78.991.636 1.61-.093 1.356-.153 2.5-.331 3.746a31.826 31.826 0 0 1-16.134-1.161Z" fill="#D3E8EF"/><path fill-rule="evenodd" clip-rule="evenodd" d="M241.063 90.126a44.133 44.133 0 0 1 6.33-1.61v8.076a32.964 32.964 0 0 1-5.881-.95c-.178-1.83-.33-3.652-.449-5.516Z" fill="#fff"/><path fill-rule="evenodd" clip-rule="evenodd" d="M233.877 92.6c-.33-1.694-.567-3.44-.754-5.169-.118-1.169-.178-2.347-.271-3.5a4.097 4.097 0 0 1 1.898-4.236c2.449-1.5 6.796-2.483 9.635-3.11a72.26 72.26 0 0 1 2.619-.568l.423-.093.373.093a94.22 94.22 0 0 1 2.619.568c2.838.635 7.185 1.5 9.634 3.11a4.216 4.216 0 0 1 1.899 4.194c-.094 1.161-.153 2.33-.272 3.5a59.887 59.887 0 0 1-1.203 7.364 31.811 31.811 0 0 1-10.914 1.957 32.475 32.475 0 0 1-15.686-4.101v-.008Z" fill="#598291"/><path fill-rule="evenodd" clip-rule="evenodd" d="M236.106 93.719a57.754 57.754 0 0 1-1.296-9.94 2.312 2.312 0 0 1 .991-2.432c2.237-1.398 7.22-2.508 11.626-3.44 4.364.932 9.364 2.042 11.61 3.44.932.568 1.025 1.381.991 2.432a58.54 58.54 0 0 1-1.61 11.38s0 .178-.119.297a32.74 32.74 0 0 1-8.694 1.186 31.196 31.196 0 0 1-13.499-2.931v.008Z" fill="#598291"/><path fill-rule="evenodd" clip-rule="evenodd" d="M238.826 94.83a74.418 74.418 0 0 1-1.203-11.05 2.6 2.6 0 0 1 .754-2.433c1.729-1.398 5.593-2.508 9.025-3.44 3.381.932 7.245 2.042 9.024 3.44.661.627.95 1.55.755 2.432a74.323 74.323 0 0 1-1.263 11.38c-.076.34-.22.662-.424.95-1.94.364-3.915.542-5.898.542a30.627 30.627 0 0 1-10.761-1.822h-.009Z" fill="#7EAABA"/><path fill-rule="evenodd" clip-rule="evenodd" d="M235.326 89.524c-.271-1.94-.389-3.686-.542-5.745a2.312 2.312 0 0 1 .992-2.432c2.237-1.398 7.219-2.508 11.626-3.44 4.364.932 9.363 2.042 11.609 3.44.932.568 1.025 1.381.992 2.432-.153 2.06-.272 3.771-.543 5.745-2.017.441-4.05.763-6.101.966a.487.487 0 0 0-.424.39 4.154 4.154 0 0 1-1.5 2.754 6.156 6.156 0 0 1-3.999 1.204 6.275 6.275 0 0 1-4.042-1.204 4.245 4.245 0 0 1-1.5-2.754.446.446 0 0 0-.424-.39 50.194 50.194 0 0 1-6.135-.966h-.009Z" fill="#D3E8EF"/><path fill-rule="evenodd" clip-rule="evenodd" d="M247.393 77.898c3.381.932 7.246 2.042 9.025 3.44a2.59 2.59 0 0 1 .754 2.433c-.118 2.237-.212 4.101-.449 6.253-1.051.178-2.152.297-3.356.424a.486.486 0 0 0-.423.39c-.466 2.839-2.89 3.881-5.551 3.881-2.66 0-5.126-1.11-5.576-3.923a.444.444 0 0 0-.423-.39c-1.17-.119-2.271-.238-3.356-.424a83.13 83.13 0 0 1-.449-6.254 2.603 2.603 0 0 1 .754-2.432c1.788-1.322 5.627-2.432 9.05-3.398Z" fill="#fff"/><path fill-rule="evenodd" clip-rule="evenodd" d="M243.546 85.415h1.966c.246 0 .441.203.449.449v3.898a1.206 1.206 0 0 0 1.415 1.415c.373.034.738-.076 1.034-.297a1.46 1.46 0 0 0 .297-1.11v-3.898c0-.246.203-.44.449-.449h1.983c.237 0 .432.195.432.432v4.119a2.993 2.993 0 0 1-1.102 2.567 4.787 4.787 0 0 1-3.143.898 4.859 4.859 0 0 1-3.187-.898 3.17 3.17 0 0 1-1.101-2.567v-4.102a.502.502 0 0 1 .483-.449l.025-.008Z" fill="#0B87E8"/><path fill-rule="evenodd" clip-rule="evenodd" d="M243.546 85.703a.22.22 0 0 0-.237.212v4.1a2.932 2.932 0 0 0 1.008 2.407 4.86 4.86 0 0 0 3.009.831v-1.898a1.84 1.84 0 0 1-1.229-.39 1.885 1.885 0 0 1-.39-1.263v-3.898c0-.127-.119-.22-.237-.212h-1.907v.102l-.017.009Z" fill="#57B6FF"/><path fill-rule="evenodd" clip-rule="evenodd" d="m248.436 77.602-.975 3.982c.831 1.415 4.237 3.322 5.898 3.958.72.296 1.322.364 1.822-.178 1.203-1.246 2.229-4.754 2.432-7.788h-9.169v.034l-.008-.008Z" fill="#3C942C"/><path fill-rule="evenodd" clip-rule="evenodd" d="M256.554 77.602c0 .635-.153 1.228-.238 1.804a12.76 12.76 0 0 1-1.881 5.246l-.118.093c-.204 0-.399-.06-.568-.152a18.665 18.665 0 0 1-5.161-3.22l.975-3.771h6.991Z" fill="#3C942C"/><path fill-rule="evenodd" clip-rule="evenodd" d="M255.893 81.195a8.534 8.534 0 0 1-1.5 3.398l-.119.093a1.19 1.19 0 0 1-.568-.153 20.284 20.284 0 0 1-4.914-3.008h.779a8.445 8.445 0 0 0 2.661 1.144 9.774 9.774 0 0 1-1.127-1.17c1.593 0 3.22-.093 4.796-.296l-.008-.008Z" fill="#82E371"/><path fill-rule="evenodd" clip-rule="evenodd" d="m246.19 77.602.991 3.982c-.839 1.415-4.254 3.322-5.906 3.958-.72.296-1.305.364-1.822-.178-1.203-1.246-2.229-4.754-2.432-7.788h9.169v.034-.008Z" fill="#3C942C"/><path fill-rule="evenodd" clip-rule="evenodd" d="M238.106 77.602c0 .635.152 1.228.237 1.804a12.775 12.775 0 0 0 1.881 5.246l.119.093c.203 0 .398-.06.568-.152a18.645 18.645 0 0 0 5.16-3.22l-1.025-3.771h-6.949.009Z" fill="#3C942C"/><path fill-rule="evenodd" clip-rule="evenodd" d="M238.733 81.195a8.52 8.52 0 0 0 1.5 3.398l.118.093c.204 0 .399-.06.568-.153a20.309 20.309 0 0 0 4.915-3.008h-.796a8.645 8.645 0 0 1-2.661 1.144 12.27 12.27 0 0 0 1.144-1.17c-1.593 0-3.22-.093-4.797-.296l.009-.008Z" fill="#82E371"/><path fill-rule="evenodd" clip-rule="evenodd" d="M250.715 77.602a23.527 23.527 0 0 1-.754 5.16 4.613 4.613 0 0 1-5.305 0 23.587 23.587 0 0 1-.754-5.16h6.813Z" fill="#3C942C"/><path fill-rule="evenodd" clip-rule="evenodd" d="M244.809 77.957a23.15 23.15 0 0 0 .635 4.314 3.833 3.833 0 0 0 3.771 0 23.18 23.18 0 0 0 .636-4.314h-5.042Z" fill="#3C942C"/><path fill-rule="evenodd" clip-rule="evenodd" d="M245.199 81.195c0 .364.152.694.237 1.05a3.833 3.833 0 0 0 3.771 0c.093-.364.152-.72.237-1.084h-2.72c-.542.034-1.025.034-1.534.034h.009Z" fill="#82E371"/><path fill-rule="evenodd" clip-rule="evenodd" d="m211.718 39.918 9.635-1.008-3.263 24.794-9.126-4.406a3.316 3.316 0 0 1-1.958-2.33 25.574 25.574 0 0 1 2.195-15.55c.449-.83.949-1.322 2.508-1.5h.009Z" fill="#598291"/><path fill-rule="evenodd" clip-rule="evenodd" d="m216.48 60.688 2.509-19.44c-.839.094-7.517.72-7.847.933a1.41 1.41 0 0 0-.153.237 23.53 23.53 0 0 0-2.034 14.16c.102.39.399.711.78.839l6.737 3.262.008.009Z" fill="#D3E8EF"/><path fill-rule="evenodd" clip-rule="evenodd" d="m216.48 60.688.178-1.382-6.914-2.813c-.509-.212-.873-2.093-1.111-4.16a17.915 17.915 0 0 0 .331 4.253c.102.39.398.712.78.84l6.736 3.262Zm1.068-8.212 1.5-11.228c-.839.094-7.516.72-7.847.933-.059.076-.11.152-.152.237a24.381 24.381 0 0 0-2.093 6.737l8.584 3.321h.008Z" fill="#fff"/><path fill-rule="evenodd" clip-rule="evenodd" d="m209.659 45.951 2.661 2.297c.372.322.559.805.508 1.296-.271 2.754-.602 5.356-.695 9.025a56.28 56.28 0 0 1-.423-9.186c0-.118 0-.212-.094-.27l-1.822-1.67-.237-.95c0-.186.034-.364.093-.542h.009Z" fill="#D3E8EF"/><path fill-rule="evenodd" clip-rule="evenodd" d="m209.506 46.494 2.271 2a1.5 1.5 0 0 1 .509 1.296 51.427 51.427 0 0 0-.314 7.669v1.127l-1.169-.56a3.167 3.167 0 0 0 0-.567 53.708 53.708 0 0 1 .347-7.83c0-.119 0-.212-.093-.271l-1.847-1.653c.093-.406.212-.813.296-1.203v-.008Z" fill="#7EAABA"/><path fill-rule="evenodd" clip-rule="evenodd" d="M253.834 8.124c6.558 5.897 7.008 13.533 4.016 21.38l-2.271-.933c2.619-6.914 2.432-13.414-3.355-18.625l1.61-1.822Z" fill="#598291"/><path fill-rule="evenodd" clip-rule="evenodd" d="M251.724.124c4.177.729 6.974 4.712 6.245 8.89a7.684 7.684 0 0 1-8.889 6.245c-4.178-.729-6.974-4.712-6.246-8.89v-.025c.729-4.17 4.712-6.957 8.881-6.228l.009.008Z" fill="#3C942C"/><path fill-rule="evenodd" clip-rule="evenodd" d="M251.452 1.658a6.1 6.1 0 0 1 4.924 7.093 6.1 6.1 0 0 1-7.093 4.923 6.1 6.1 0 0 1-4.932-7.05c.593-3.33 3.771-5.542 7.093-4.966h.008Z" fill="#3C942C"/><path fill-rule="evenodd" clip-rule="evenodd" d="M255.774 4.768a6.117 6.117 0 0 1-2.466 8.296 6.117 6.117 0 0 1-8.296-2.466 5.942 5.942 0 0 1-.474-1.127 5.994 5.994 0 0 0 4.313 3.11 6.157 6.157 0 0 0 7.093-4.974 6.436 6.436 0 0 0-.178-2.839h.008Zm-5.805-2.602c2.119-.093 3.593 1.22 3.297 3.009a4.626 4.626 0 0 1-4.373 3.322c-2.118.118-3.593-1.23-3.296-2.932a4.656 4.656 0 0 1 4.372-3.399Z" fill="#82E371"/><path fill-rule="evenodd" clip-rule="evenodd" d="M255.138 33.935c-2.093-.39-9.024-1.83-9.304-4.508a21.55 21.55 0 0 1 1.788-9.669c1.144-2.288 8.152-1.203 10.194-.838 2.042.364 9.025 1.77 9.245 4.287a21.216 21.216 0 0 1-1.61 9.694c-1.144 2.424-8.211 1.399-10.313 1.034Z" fill="#006CBF"/><path fill-rule="evenodd" clip-rule="evenodd" d="M265.299 23.394c-.721-1.263-6.364-2.526-7.822-2.754a40.133 40.133 0 0 0-4.618-.543 9.534 9.534 0 0 0-3.686.45 19.513 19.513 0 0 0-1.593 8.643c.152.635 2.737 1.652 3.338 1.83 3.009 1.026 8.737 2.06 11.822 1.432.372-.05.728-.178 1.05-.372a19.577 19.577 0 0 0 1.5-8.695l.009.009Z" fill="#006CBF"/><path fill-rule="evenodd" clip-rule="evenodd" d="M257.486 20.614a40.138 40.138 0 0 0-4.618-.542 9.542 9.542 0 0 0-3.687.449 19.527 19.527 0 0 0-1.593 8.643c.093.238.661.636.839.755a22.644 22.644 0 0 0 6.974 2.211l2.076-11.516h.009Z" fill="#57B6FF"/><path fill-rule="evenodd" clip-rule="evenodd" d="m293.873 54.434-8.694-4.254-5.415 24.405 10.092-1.025a3.272 3.272 0 0 0 2.644-1.5 25.343 25.343 0 0 0 3.263-15.364c-.119-.974-.45-1.55-1.899-2.254l.009-.008Z" fill="#598291"/><path fill-rule="evenodd" clip-rule="evenodd" d="m282.34 72.305 4.254-19.142c.754.364 6.855 3.262 7.033 3.567v.271a23.738 23.738 0 0 1-3.008 14.016c-.22.348-.61.551-1.025.543l-7.263.754.009-.009Z" fill="#D3E8EF"/><path fill-rule="evenodd" clip-rule="evenodd" d="m282.34 72.305.296-1.356 7.424-.288c.567 0 1.5-1.669 2.499-3.533a17.613 17.613 0 0 1-1.804 3.864c-.221.347-.611.55-1.026.542l-7.398.763.009.008Zm1.805-8.058 2.449-11.084c.754.364 6.855 3.262 7.033 3.567v.271c.229 2.348.11 4.72-.364 7.034l-9.127.212h.009Z" fill="#fff"/><path fill-rule="evenodd" clip-rule="evenodd" d="m293.78 60.806-3.263 1.263a1.489 1.489 0 0 0-.898 1.034c-.695 2.677-1.28 5.245-2.449 8.72a57.58 57.58 0 0 0 3.568-8.508c0-.12 0-.178.178-.238l2.254-.949.542-.813c.042-.153.076-.365.076-.509h-.008Z" fill="#D3E8EF"/><path fill-rule="evenodd" clip-rule="evenodd" d="m293.72 61.349-2.813 1.101a1.494 1.494 0 0 0-.898 1.051 50.069 50.069 0 0 1-2.39 7.28l-.449 1.05 1.297-.153c.093-.178.152-.364.237-.542a54.375 54.375 0 0 0 2.423-7.516c0-.094 0-.178.178-.212l2.297-.898c.059-.348.093-.738.118-1.161Z" fill="#7EAABA"/><path fill-rule="evenodd" clip-rule="evenodd" d="M246.978 80.339a115.444 115.444 0 0 1-15.185-3.653 53.074 53.074 0 0 1-12.025-5.245c-2.694-1.67-5.847-4.288-6.118-7.847-.796-10.389 2.135-26.87 6.72-36.235 1.695-3.567 6.737-4.618 10.152-5.033 4.059-.432 8.152-.5 12.219-.178 4.737.314 9.457.89 14.135 1.746 4.694.796 9.338 1.864 13.905 3.186a67.044 67.044 0 0 1 11.44 4.347c3.085 1.5 7.423 4.288 7.847 8.237 1.085 10.389-1.788 26.82-6.101 36.353-1.5 3.229-5.305 4.618-8.423 5.262a53.045 53.045 0 0 1-13.05.814 117.786 117.786 0 0 1-15.516-1.746v-.008Z" fill="#598291"/><path fill-rule="evenodd" clip-rule="evenodd" d="M247.393 77.898c-10.406-1.822-20.549-4.932-26.404-8.584-3.009-1.898-4.856-3.923-5.009-6.016-.703-9.627 2-25.71 6.508-34.896.967-1.983 4.043-3.16 8.356-3.695 6.643-.83 16.27-.135 25.693 1.5 9.423 1.636 18.566 4.347 24.583 7.364 3.864 1.983 6.347 4.135 6.584 6.313 1.085 10.194-1.924 26.235-5.906 35.048-.78 1.898-3.246 3.246-6.695 3.924-6.737 1.44-17.337.83-27.727-.966l.017.008Z" fill="#BDD6DE"/><path fill-rule="evenodd" clip-rule="evenodd" d="M216.607 49.993a75.335 75.335 0 0 1 5.898-21.591c.966-1.983 4.042-3.16 8.356-3.695 6.643-.83 16.27-.135 25.693 1.5 9.423 1.636 18.685 4.313 24.684 7.338 3.864 1.983 6.347 4.136 6.585 6.314a75.297 75.297 0 0 1-1.899 22.295 20.86 20.86 0 0 1-4.508.796c-.584 0-1.22.119-1.881.153a59.963 59.963 0 0 0 3.093-16.1c0-1.026-.661-1.357-1.61-1.687a118.252 118.252 0 0 0-15.456-4.618.856.856 0 0 0-.967.449 40.835 40.835 0 0 1-3.83 6.796c-1.686 1.83-14.702-.483-15.634-2.754a43.134 43.134 0 0 1-1.263-7.695.805.805 0 0 0-.737-.72 113.433 113.433 0 0 0-16.084-.949c-1.025 0-1.83 0-2.118 1.008a60.288 60.288 0 0 0-2.644 16.236l-1.729-.78a22.182 22.182 0 0 1-3.957-2.296h.008Zm30.795 27.905c-10.406-1.822-20.55-4.932-26.405-8.584-3.008-1.898-4.856-3.923-5.008-6.016V62.17c.178.542.441 1.05.779 1.5a12.007 12.007 0 0 0 4.509 4.253c5.847 3.593 15.998 6.644 26.388 8.483 10.389 1.83 21.049 2.423 27.709 1.034a12.578 12.578 0 0 0 5.763-2.45 6.095 6.095 0 0 0 1.22-1.11 11.74 11.74 0 0 1-.483 1.051c-.873 1.898-3.339 3.246-6.754 3.924-6.737 1.44-17.338.83-27.727-.966l.009.008Z" fill="#fff"/><path fill-rule="evenodd" clip-rule="evenodd" d="M241.335 24.478a29.913 29.913 0 0 0 2.465 4.78 42.455 42.455 0 0 0 11.576 3.38 42.429 42.429 0 0 0 12.024.78c1.229-.991 2.754-2.482 3.924-3.652a13.548 13.548 0 0 1-3.627 5.034c-4.22.364-8.465.11-12.618-.755a43.553 43.553 0 0 1-12.024-3.593 20.264 20.264 0 0 1-1.729-5.982l.009.008Z" fill="#BDD6DE"/><path fill-rule="evenodd" clip-rule="evenodd" d="M241.334 24.478a19.01 19.01 0 0 0 1.983 5.415 45.547 45.547 0 0 0 11.94 3.475 45.672 45.672 0 0 0 12.431.813 18.6 18.6 0 0 0 3.687-4.406l1.355.423c-.991 1.5-3.228 4.763-4.703 5.364a45.176 45.176 0 0 1-12.99-.813 46.27 46.27 0 0 1-12.491-3.686c-1.203-1.085-2.195-4.83-2.601-6.644.432.034.915.06 1.398.06h-.009Z" fill="#7EAABA"/><path fill-rule="evenodd" clip-rule="evenodd" d="M252.24 50.417c3.204.56 7.695.737 8.542-.542a59.468 59.468 0 0 0 3.712-9.025.792.792 0 0 1 .966-.568 96.962 96.962 0 0 1 16.761 5.432c.992.424 1.746.78 1.687 2.093a84.139 84.139 0 0 1-5.763 25.558c-.449 1.067-3.474 1.906-4.389 2.118a45.653 45.653 0 0 1-11.415.814 101.974 101.974 0 0 1-14.448-1.5 104.705 104.705 0 0 1-14.075-3.475 46.88 46.88 0 0 1-10.525-4.643c-.796-.509-3.279-2.33-3.338-3.517a86.294 86.294 0 0 1 3.381-26.023c.364-1.246 1.203-1.34 2.271-1.399a100.303 100.303 0 0 1 17.617.644c.432.051.746.44.704.873a56.78 56.78 0 0 0 .423 9.745c.39 1.475 4.678 2.856 7.881 3.432l.008-.017Z" fill="#1E2432"/><path fill-rule="evenodd" clip-rule="evenodd" d="M282.636 46.909a74.618 74.618 0 0 1-2.152 14.016c-.72 2.66-2.076 2.483-4.949 2.839-12.024 1.5-38.971-3.263-49.716-8.78-2.568-1.304-3.958-2.39-3.687-4.33a106.31 106.31 0 0 1 2.763-13.905c.076-.33.5-.45.796-.483a101.01 101.01 0 0 1 17.533.66.266.266 0 0 1 .237.297c0 .992-.093 1.983 0 3.008a65.6 65.6 0 0 0 .5 6.932c.483 2.178 6.296 3.5 8.271 3.822 1.966.313 7.881 1.11 9.109-.763.153-.237.297-.542.424-.78a59.27 59.27 0 0 0 3.356-8.355.263.263 0 0 1 .313-.212h.017a99.445 99.445 0 0 1 16.677 5.398.89.89 0 0 1 .508.644v-.008ZM220.497 61.95v1.127c0 .873 2.423 2.644 3.144 3.085 10.524 6.872 37.734 11.651 49.962 8.813.831-.178 3.686-1.026 4.034-1.822.152-.33.296-.695.449-1.051a14.39 14.39 0 0 1-3.568 1.296c-12.541 2.84-40.336-2.042-51.114-9.024a12.884 12.884 0 0 1-2.899-2.39v-.034h-.008Z" fill="#2D3956"/><path fill-rule="evenodd" clip-rule="evenodd" d="M231.937 48.85a24.39 24.39 0 0 0-1.381 7.787c0 3.898 7.008 5.186 8.118 1.5a33.31 33.31 0 0 0 1.364-7.788c.237-3.957-6.796-5.245-8.101-1.5Zm39.887 7.033a23.957 23.957 0 0 1-1.381 7.787c-1.339 3.687-8.347 2.483-8.102-1.432a32.451 32.451 0 0 1 1.365-7.787c1.144-3.746 8.177-2.466 8.118 1.432Zm-16.508 9.991c-1.499 6.49-11.473 4.754-10.626-1.865a21.427 21.427 0 0 0 10.626 1.865Z" fill="#82E371"/><path fill-rule="evenodd" clip-rule="evenodd" d="M219.489 78.347a8.867 8.867 0 0 1 8.914 8.822 8.868 8.868 0 0 1-17.736.093v-.06c0-4.872 3.949-8.83 8.822-8.855Z" fill="#598291"/><path fill-rule="evenodd" clip-rule="evenodd" d="M219.489 79.856c4.084-.026 7.414 3.27 7.44 7.355.025 4.085-3.271 7.415-7.356 7.44-4.084.026-7.414-3.27-7.44-7.355v-.093a7.404 7.404 0 0 1 7.356-7.356v.009Z" fill="#D3E8EF"/><path fill-rule="evenodd" clip-rule="evenodd" d="M219.489 79.856c4.084-.068 7.448 3.194 7.516 7.279v.076a7.49 7.49 0 0 1-.424 2.483c-1.44.534-2.974.796-4.508.78-4.508 0-8.372-2.238-9.609-5.34a7.409 7.409 0 0 1 7.025-5.278Z" fill="#fff"/><path fill-rule="evenodd" clip-rule="evenodd" d="M213.133 72.365a6.99 6.99 0 0 1 1.847-4.314 6.792 6.792 0 0 1 3.958-1.203c2.161 0 5.338.839 5.398 3.5.118 5.728 0 11.44 0 17.143a5.123 5.123 0 0 1-.814 3.008c-2.525 4-10.694 4.228-14.55 2.16a3.096 3.096 0 0 1-1.593-1.5 31.626 31.626 0 0 1-1.161-6.33 36.819 36.819 0 0 1-.093-7.033c.136-1.694.559-4.33 2.483-4.898a14.107 14.107 0 0 1 3.203-.508c.441-.05.881-.05 1.322-.017v-.008Z" fill="#598291"/><path fill-rule="evenodd" clip-rule="evenodd" d="M214.142 81.195c-1.161-3.009-1.221-11.025 1.084-12.813 2.542-1.983 8.542-1.356 8.627 1.907.118 5.728 0 11.44 0 17.168.152 6.313-10.135 7.262-14.737 4.83a2.616 2.616 0 0 1-1.381-1.263l6.407-9.83Z" fill="#598291"/><path fill-rule="evenodd" clip-rule="evenodd" d="M215.735 81.406c-1.5-2.542-1.229-10.694.364-11.906 1.847-1.5 6.372-.932 6.406.89.119 4.796 0 11.144.093 17.143.119 5.084-10.092 5.745-13.532 3.11l6.677-9.228-.008-.009Z" fill="#D3E8EF"/><path fill-rule="evenodd" clip-rule="evenodd" d="M214.65 75c.093-2.423.568-4.677 1.322-5.305a6.026 6.026 0 0 1 5.262-.406 40.396 40.396 0 0 1-.076 5.355c-.169 1.534-4.525 1.297-6.508.365V75Z" fill="#fff"/><path fill-rule="evenodd" clip-rule="evenodd" d="M208.693 73.297c1-.297 2.042-.458 3.084-.483 2.119-.093 7.788.33 8.271 3.11a36.705 36.705 0 0 1 0 12.024c-.559 3.365-8.33 3.28-9.576 1.83l-1.432.84-1.296.423a33.548 33.548 0 0 1-1.17-6.27 38.86 38.86 0 0 1-.093-6.95c.17-1.457.5-4.041 2.212-4.541v.017Z" fill="#598291"/><path fill-rule="evenodd" clip-rule="evenodd" d="M209.057 74.61c3.898-1.127 9.398.094 9.669 1.5a35.02 35.02 0 0 1 0 11.593c-.271 1.762-6.949 3.593-9.669 2.898-1.712-5.492-1.805-15.423 0-16v.01Z" fill="#D3E8EF"/><path fill-rule="evenodd" clip-rule="evenodd" d="M209.057 74.61a14.205 14.205 0 0 1 8 .272c.516 3.72.474 7.49-.119 11.202-.212 1.593-5.127 3.17-8.237 3.17-1.356-5.653-1.228-14.16.365-14.644h-.009Z" fill="#fff"/><path fill-rule="evenodd" clip-rule="evenodd" d="M207.1 82.008a25.175 25.175 0 0 1 13.033 0l-.297 1.229a23.4 23.4 0 0 0-12.372 0l-.364-1.229Zm60.987 6.703a7.02 7.02 0 0 1 7.033 7.008 7.015 7.015 0 0 1-7.008 7.033 7.02 7.02 0 0 1-7.033-7.008v-.017c0-3.872 3.118-7.016 6.991-7.025h.017v.009Z" fill="#598291"/><path fill-rule="evenodd" clip-rule="evenodd" d="M268.087 89.821c3.228 0 5.855 2.602 5.864 5.83a5.848 5.848 0 0 1-5.83 5.864c-3.229 0-5.856-2.602-5.864-5.83v-.017a5.802 5.802 0 0 1 5.762-5.847h.076-.008Z" fill="#D3E8EF"/><path fill-rule="evenodd" clip-rule="evenodd" d="M268.087 89.821c3.203 0 5.813 2.585 5.821 5.788v.06c0 .397-.034.796-.118 1.185a5.718 5.718 0 0 1-3.009.84 5.825 5.825 0 0 1-5.83-5.805v-.034c0-.407.034-.805.119-1.204a6.197 6.197 0 0 1 3.025-.838l-.008.008Z" fill="#fff"/><path fill-rule="evenodd" clip-rule="evenodd" d="M257.969 98.515c-1.085-.178-2.161-.601-2.373-1.711a26.887 26.887 0 0 1-.296-6.229c.093-1.415 1.686-1.983 3.008-2.237a7.974 7.974 0 0 1 4.076-2.5 18.102 18.102 0 0 1 7.364 1.297c2.33.813 2.237 5.203 2.178 7.22-.094 1.728-.365 5.474-1.746 6.643-2.483 2.102-11.228 2.288-11.847-.754a17.005 17.005 0 0 1-.364-1.729Z" fill="#598291"/><path fill-rule="evenodd" clip-rule="evenodd" d="M262.774 89.668a19.838 19.838 0 0 1 0 7.068c-.314 1.262-2.238 1.415-3.322 1.415-1.085 0-3.144-.093-3.381-1.5a25.829 25.829 0 0 1-.297-6.101c.093-1.356 2.229-1.771 3.263-1.958 1.033-.186 3.364-.347 3.745 1.085l-.008-.009Z" fill="#598291"/><path fill-rule="evenodd" clip-rule="evenodd" d="M261.74 89.974c-.212-.84-4.856 0-4.915.694a25.197 25.197 0 0 0 .254 5.864c.153.72 4.407.78 4.618 0 .416-2.16.433-4.39.043-6.558Z" fill="#D3E8EF"/><path fill-rule="evenodd" clip-rule="evenodd" d="M269.561 87.584c2.059.695 1.966 5.084 1.881 6.796-.084 1.712-.33 5.28-1.499 6.313a9.406 9.406 0 0 1-5.009 1.415c-1.499 0-5.728 0-6.135-1.923a36.946 36.946 0 0 1-.601-10.449c.118-1.5 3.008-3.169 4.313-3.38 2.415-.094 4.813.33 7.05 1.228Z" fill="#598291"/><path fill-rule="evenodd" clip-rule="evenodd" d="M269.104 88.558a16.742 16.742 0 0 0-6.568-1.186 5.632 5.632 0 0 0-3.415 2.424 35.842 35.842 0 0 0 .568 10.151c.271 1.263 7.338 1.653 9.415-.093 1.338-1.101 1.999-10.753 0-11.287v-.009Z" fill="#D3E8EF"/><path fill-rule="evenodd" clip-rule="evenodd" d="M269.104 88.558a17.727 17.727 0 0 0-6.39-1.22v11.77a15.03 15.03 0 0 0 7.084-.72c.814-3.025.916-9.414-.694-9.83Zm-9.534.509a1.757 1.757 0 0 0-.483.695 35.842 35.842 0 0 0 .568 10.151c.271 1.263 7.339 1.653 9.415-.093.144-.118.254-.27.33-.432-2.195 1.636-9.025 1.246-9.321 0a35.828 35.828 0 0 1-.568-10.16s.093-.093.119-.153h-.06v-.008Z" fill="#fff"/><path fill-rule="evenodd" clip-rule="evenodd" d="M258.477 94.134a14.502 14.502 0 0 1 4.78-1.025c.364 0 .296 1.144 0 1.144-1.551.06-3.076.381-4.509.966l-.271-1.085Z" fill="#598291"/><path fill-rule="evenodd" clip-rule="evenodd" d="M269.832 98.363a41.43 41.43 0 0 1-1.771-.78.303.303 0 0 1-.178-.364 28.43 28.43 0 0 0 0-6.584.343.343 0 0 1 .212-.365c.593-.296 1.212-.55 1.831-.78.152.195.22.441.194.695-.559.178-1.067.424-1.576.636a28.32 28.32 0 0 1 0 6.228c.483.238.966.45 1.5.661a.855.855 0 0 1-.212.661v-.008Z" fill="#7EAABA"/></svg>