<svg xmlns="http://www.w3.org/2000/svg" width="252" height="36" fill="none"><path fill-rule="evenodd" clip-rule="evenodd" d="M2.07 0C.927 0 0 .897 0 2.004v27.058c0 1.107.927 2.004 2.07 2.004h25.35c.858 0 1.552-.673 1.552-1.503s-.694-1.503-1.552-1.503H4.656c-.857 0-1.552-.673-1.552-1.503V11.525c0-.83.695-1.504 1.552-1.504H43.46c1.143 0 2.07-.897 2.07-2.004V2.004C45.53.897 44.603 0 43.46 0H2.07Zm48.634 21.296H49.41v-1.754c0-3.598-3.011-6.514-6.726-6.514s-6.726 2.916-6.726 6.514v1.754h-1.81c-1.144 0-2.07.897-2.07 2.004v10.02c0 1.107.926 2.005 2.07 2.005h16.556c1.143 0 2.07-.898 2.07-2.005V23.3c0-1.107-.927-2.004-2.07-2.004Zm-4.398-1.754v1.754h-7.243v-1.754c0-1.937 1.621-3.508 3.621-3.508s3.622 1.57 3.622 3.508ZM7.243 18.039c0-.554.464-1.003 1.035-1.003h16.556c.572 0 1.035.45 1.035 1.003s-.463 1.002-1.035 1.002H8.278c-.571 0-1.035-.449-1.035-1.002Zm0 4.51c0-.554.464-1.003 1.035-1.003h6.209c.571 0 1.035.449 1.035 1.002s-.464 1.002-1.035 1.002H8.278c-.571 0-1.035-.448-1.035-1.002ZM34.665 32.82V23.8h15.521v9.02H34.665Z" fill="#428BCA"/><path d="M71.32 27 64.51 5.82h4.68l4.98 16.29h-1.83L77.2 5.82h3.69l4.86 16.29h-1.8L88.9 5.82h4.65L86.74 27h-3.69l-4.89-16.29h1.74L75.01 27h-3.69Zm26.879-7.71v-3.66h4.56c.58 0 1.11-.12 1.59-.36s.86-.59 1.14-1.05c.28-.46.42-1.02.42-1.68 0-.64-.14-1.19-.42-1.65-.28-.46-.66-.81-1.14-1.05-.48-.24-1.01-.36-1.59-.36h-4.56V5.82h5.25c1.34 0 2.55.27 3.63.81s1.93 1.32 2.55 2.34c.64 1 .96 2.19.96 3.57s-.32 2.58-.96 3.6c-.62 1-1.47 1.78-2.55 2.34-1.08.54-2.29.81-3.63.81h-5.25Zm-3.6 7.71V5.82h4.71V27h-4.71Zm27.383.33c-1.74 0-3.24-.28-4.5-.84-1.24-.58-2.38-1.45-3.42-2.61l3.06-3.03c.68.78 1.43 1.39 2.25 1.83.84.42 1.81.63 2.91.63 1 0 1.77-.18 2.31-.54.56-.36.84-.86.84-1.5 0-.58-.18-1.05-.54-1.41-.36-.36-.84-.67-1.44-.93-.58-.26-1.23-.51-1.95-.75-.7-.24-1.4-.51-2.1-.81-.7-.32-1.35-.71-1.95-1.17a5.579 5.579 0 0 1-1.41-1.77c-.36-.72-.54-1.62-.54-2.7 0-1.3.31-2.42.93-3.36.64-.94 1.52-1.65 2.64-2.13 1.12-.5 2.41-.75 3.87-.75 1.48 0 2.83.26 4.05.78 1.24.52 2.26 1.23 3.06 2.13l-3.06 3.03c-.64-.66-1.29-1.15-1.95-1.47-.64-.32-1.37-.48-2.19-.48-.82 0-1.47.16-1.95.48-.48.3-.72.74-.72 1.32 0 .54.18.98.54 1.32.36.32.83.6 1.41.84.6.24 1.25.48 1.95.72.72.24 1.43.52 2.13.84.7.32 1.34.73 1.92 1.23.6.48 1.08 1.1 1.44 1.86.36.74.54 1.66.54 2.76 0 2.02-.72 3.61-2.16 4.77-1.44 1.14-3.43 1.71-5.97 1.71Zm9.21-.33V12.42h4.59V27h-4.59Zm2.31-16.59c-.72 0-1.32-.24-1.8-.72-.46-.5-.69-1.1-.69-1.8 0-.72.23-1.32.69-1.8.48-.48 1.08-.72 1.8-.72s1.31.24 1.77.72c.46.48.69 1.08.69 1.8 0 .7-.23 1.3-.69 1.8-.46.48-1.05.72-1.77.72ZM137.515 27V12.42h4.59V27h-4.59Zm9.33 0v-8.52c0-.74-.23-1.31-.69-1.71-.44-.42-.99-.63-1.65-.63-.46 0-.87.1-1.23.3-.36.18-.65.44-.87.78-.2.34-.3.76-.3 1.26l-1.77-.78c0-1.16.25-2.15.75-2.97.5-.84 1.18-1.48 2.04-1.92.86-.46 1.83-.69 2.91-.69 1.02 0 1.93.23 2.73.69.82.46 1.47 1.1 1.95 1.92.48.82.72 1.8.72 2.94V27h-4.59Zm9.33 0v-8.52c0-.74-.23-1.31-.69-1.71-.44-.42-.99-.63-1.65-.63-.46 0-.87.1-1.23.3-.36.18-.65.44-.87.78-.2.34-.3.76-.3 1.26l-2.64-.36c.04-1.24.33-2.3.87-3.18.56-.9 1.29-1.59 2.19-2.07.92-.5 1.95-.75 3.09-.75 1.12 0 2.11.24 2.97.72.88.46 1.57 1.13 2.07 2.01.52.86.78 1.9.78 3.12V27h-4.59Zm14.431.3c-.98 0-1.88-.19-2.7-.57-.82-.38-1.49-.9-2.01-1.56a4.4 4.4 0 0 1-.9-2.31v-6.15c.08-.86.38-1.64.9-2.34s1.19-1.25 2.01-1.65c.82-.4 1.72-.6 2.7-.6 1.38 0 2.6.33 3.66.99a6.83 6.83 0 0 1 2.52 2.7c.62 1.14.93 2.44.93 3.9s-.31 2.76-.93 3.9a6.83 6.83 0 0 1-2.52 2.7c-1.06.66-2.28.99-3.66.99Zm-.84-4.14c.66 0 1.23-.15 1.71-.45.5-.3.89-.71 1.17-1.23.28-.52.42-1.11.42-1.77 0-.68-.14-1.28-.42-1.8-.28-.52-.67-.92-1.17-1.2-.48-.3-1.04-.45-1.68-.45-.64 0-1.21.15-1.71.45a3 3 0 0 0-1.14 1.2c-.28.52-.42 1.12-.42 1.8 0 .66.13 1.25.39 1.77.28.52.67.93 1.17 1.23.5.3 1.06.45 1.68.45Zm-7.56 9.99V12.42h4.59v3.75l-.75 3.54.69 3.54v9.9h-4.53ZM178.548 27V5.22h4.59V27h-4.59Zm13.522.33c-1.58 0-2.99-.32-4.23-.96a7.419 7.419 0 0 1-2.88-2.73c-.7-1.16-1.05-2.47-1.05-3.93s.34-2.76 1.02-3.9c.7-1.16 1.64-2.07 2.82-2.73 1.18-.66 2.51-.99 3.99-.99 1.44 0 2.71.31 3.81.93 1.1.62 1.96 1.48 2.58 2.58.64 1.1.96 2.36.96 3.78 0 .26-.02.54-.06.84-.02.28-.07.61-.15.99l-12.57.03v-3.15l10.62-.03-1.98 1.32c-.02-.84-.15-1.53-.39-2.07-.24-.56-.6-.98-1.08-1.26-.46-.3-1.03-.45-1.71-.45-.72 0-1.35.17-1.89.51-.52.32-.93.78-1.23 1.38-.28.6-.42 1.33-.42 2.19 0 .86.15 1.6.45 2.22.32.6.76 1.07 1.32 1.41.58.32 1.26.48 2.04.48.72 0 1.37-.12 1.95-.36.58-.26 1.09-.64 1.53-1.14l2.52 2.52c-.72.84-1.59 1.47-2.61 1.89-1.02.42-2.14.63-3.36.63Zm15.968-8.04v-3.66h4.56c.58 0 1.11-.12 1.59-.36s.86-.59 1.14-1.05c.28-.46.42-1.02.42-1.68 0-.64-.14-1.19-.42-1.65-.28-.46-.66-.81-1.14-1.05-.48-.24-1.01-.36-1.59-.36h-4.56V5.82h5.25c1.34 0 2.55.27 3.63.81s1.93 1.32 2.55 2.34c.64 1 .96 2.19.96 3.57s-.32 2.58-.96 3.6c-.62 1-1.47 1.78-2.55 2.34-1.08.54-2.29.81-3.63.81h-5.25Zm-3.6 7.71V5.82h4.71V27h-4.71Zm22.422.3c-1.34 0-2.54-.33-3.6-.99-1.04-.66-1.87-1.56-2.49-2.7-.6-1.14-.9-2.44-.9-3.9s.3-2.76.9-3.9c.62-1.14 1.45-2.04 2.49-2.7 1.06-.66 2.26-.99 3.6-.99.98 0 1.86.19 2.64.57.8.38 1.45.91 1.95 1.59.5.66.78 1.42.84 2.28v6.3c-.06.86-.34 1.63-.84 2.31-.48.66-1.12 1.18-1.92 1.56-.8.38-1.69.57-2.67.57Zm.93-4.14c.98 0 1.77-.32 2.37-.96.6-.66.9-1.49.9-2.49 0-.68-.14-1.28-.42-1.8-.26-.52-.64-.92-1.14-1.2-.48-.3-1.04-.45-1.68-.45-.64 0-1.21.15-1.71.45-.48.28-.87.68-1.17 1.2-.28.52-.42 1.12-.42 1.8 0 .66.14 1.25.42 1.77.28.52.67.93 1.17 1.23.5.3 1.06.45 1.68.45Zm3.09 3.84v-3.93l.69-3.54-.69-3.54v-3.57h4.5V27h-4.5Zm10.732.06-6-14.64h4.95l3.81 11.61h-1.83l3.9-11.61h4.95l-6.24 14.64h-3.54Zm-3.75 6.09 4.38-9.45 2.91 3.36-2.58 6.09h-4.71Z" fill="#428BCA"/></svg>