<svg xmlns="http://www.w3.org/2000/svg" viewBox="0 0 1200 251" xml:space="preserve" fill-rule="evenodd" clip-rule="evenodd" stroke-linejoin="round" stroke-miterlimit="2"><path d="M1141.285297 88.98060855v-10.5433197c0-13.06699735 10.682127-23.7239781 23.7883525-23.7239781 13.1062255 0 23.7883525 10.65698075 23.7883525 23.7239781v10.5433197h6.6486685c2.494508 0 4.5363835 1.9956064 4.4961495 4.5182782v39.1617639c0 2.48545535-2.0418755 4.51928405-4.5363835 4.51928405h-60.833808c-2.494508 0-4.5363835-2.0338287-4.5363835-4.51928405v-39.1617639c0-2.4824378 2.031817-4.5142548 4.5363835-4.5182782h6.6486685Zm49.6588145 39.1235416V97.9799485h-51.781158v30.12420165h51.781158ZM1175.343378.0001c6.9906575.0040234 12.693827 5.68808175 12.693827 12.65258715v32.5714347c0 2.48545535-2.0418755 4.51928405-4.5363835 4.51928405s-4.526325-2.0338287-4.526325-4.51928405v-9.0365564h-154.277273v68.75890015c0 1.9956064 1.629477 3.6150249 3.6311185 3.6150249h87.4586575c2.534742 0 4.5766175 2.03282285 4.5766175 4.5182782s-2.0418755 4.51928405-4.5363835 4.51928405h-87.4988915c-6.9906575 0-12.693827-5.68607005-12.693827-12.65258715V12.65268715c0-6.9645054 5.6629355-12.64856375 12.693827-12.65258715h147.015036Zm-106.197643 81.4114873c2.494508.0040234 4.5363835 2.0358404 4.5363835 4.51928405 0 2.4844495-2.0418755 4.5182782-4.5363835 4.5182782h-21.786711c-2.494508 0-4.5363835-2.0338287-4.5363835-4.5182782 0-2.48344365 2.0418755-4.51526065 4.5363835-4.51928405h21.786711Zm110.6535585 7.53079895v-10.5433197c0-8.09608665-6.6084345-14.68541-14.725644-14.68541-8.1172095 0-14.725644 6.58932335-14.725644 14.68541v10.5433197h29.451288ZM1101.815743 65.219414c2.494508.00502925 4.526325 2.03684625 4.526325 4.51928405 0 2.48545535-2.0016415 4.5182782-4.526325 4.5182782h-54.456719c-2.494508 0-4.5363835-2.03282285-4.5363835-4.5182782 0-2.4824378 2.0418755-4.5142548 4.5363835-4.51928405h54.456719Zm-.5331005-16.38026725c2.5045665.00502925 4.5363835 2.03684625 4.5363835 4.51928405 0 2.48545535-2.0418755 4.5182782-4.5363835 4.5182782h-54.456719c-2.5246835 0-4.526325-2.03282285-4.526325-4.5182782 0-2.4824378 2.031817-4.5142548 4.526325-4.51928405h54.456719Zm77.691854-21.68914355V12.65268715c0-1.9956064-1.629477-3.6150249-3.6311185-3.6150249h-147.015036c-2.0016415 0-3.6713525 1.6194185-3.6713525 3.6150249V27.1500032h154.317507Z" fill="#428bca"/><path d="m1082.04669166 217.63485865-11.64156004 29.87369068c-.39462915.9220275-1.38120204 1.65964949-2.95971865 2.21286598-1.57851662.368811-3.94629154.737622-7.10332477.737622-1.57851662 0-2.95971866-.1844055-3.94629154-.1844055-1.18388746-.1844055-1.97314577-.5532165-2.36777493-.9220275-.59194373-.368811-.98657288-.73762199-.98657288-1.29083848 0-.737622 0-1.47524399.39462915-2.21286598l12.0361892-28.2140412c-.59194373-.1844055-1.18388746-.5532165-1.57851662-1.10643299-.59194373-.5532165-.98657288-1.10643299-1.18388746-1.84405498l-30.781074-77.45030918c-.59194373-1.10643299-.78925831-2.21286598-.78925831-2.95048797 0-.737622.19731458-1.29083848.7892583-1.65964948.39462916-.368811 1.18388747-.737622 2.36777493-.9220275 1.18388746 0 2.76240408-.18440549 4.73554985-.18440549 1.77583119 0 3.3543478 0 4.53823527.1844055.98657288 0 1.97314577.1844055 2.5650895.5532165.59194373.1844055.98657288.55321649 1.38120203.92202748.19731458.5532165.59194374 1.106433.78925831 1.84405498l24.8616367 65.09514082h.19731458l24.07237838-65.46395181c.19731458-1.106433.78925831-1.84405498 1.38120204-2.21286598.39462916-.1844055 1.38120204-.5532165 2.36777493-.737622 1.18388746 0 2.76240407-.18440549 4.73554984-.18440549 1.7758312 0 3.35434781.1844055 4.3409207.1844055 1.18388746.1844055 2.17046034.5532165 2.5650895.92202749.59194373.368811.98657288.92202749.98657288 1.65964948 0 .737622-.19731458 1.65964948-.59194373 2.76608247l-31.17570316 80.58520265ZM1022.5193591 215.42199267c0 .737622-.39462916 1.29083849-.78925832 1.65964949-.59194373.368811-1.18388746.55321649-2.17046034.73762199-.78925831.1844055-2.17046035.368811-3.94629154.368811-1.57851662 0-2.95971866-.1844055-3.94629154-.368811-.98657289-.1844055-1.7758312-.368811-2.17046035-.737622-.39462915-.36881099-.7892583-.92202748-.7892583-1.65964948v-8.11384191c-3.74897697 3.87251546-7.89258308 6.82300343-12.62813293 8.8514639-4.53823527 2.21286598-9.4710997 3.13489347-14.79859327 3.13489347-4.53823527 0-8.68184139-.5532165-12.23350377-1.65964948-3.74897696-1.10643299-6.9060102-2.58167697-9.4710997-4.79454295-2.76240407-2.02846048-4.73554984-4.61013745-6.11675188-7.74503092-1.38120204-2.95048797-2.17046035-6.45419243-2.17046035-10.51111339 0-4.42573195.98657289-8.4826529 2.95971866-11.80195187s4.93286442-6.08538144 8.68184138-8.29824741c3.55166239-2.21286598 8.28721223-3.87251546 13.61470581-4.97894845 5.32749358-1.10643299 11.44424547-1.84405498 18.15294108-1.84405498h12.0361892v-6.26978694c0-3.13489346-.39462916-5.90097593-1.18388747-8.2982474-.59194373-2.39727148-1.77583119-4.24132646-3.3543478-5.90097595-1.57851662-1.65964948-3.55166239-2.76608247-6.11675189-3.68810996-2.5650895-.73762199-5.52480815-1.10643298-9.27378512-1.10643298-3.94629154 0-7.49795392.368811-10.45767257 1.29083848-3.15703324.9220275-5.91943731 1.84405498-8.28721224 2.95048797-2.36777492.9220275-4.34092069 1.84405498-5.9194373 2.76608247-1.57851662.9220275-2.76240408 1.29083849-3.35434781 1.29083849-.59194373 0-.98657289 0-1.38120204-.368811-.39462916-.1844055-.78925831-.5532165-.98657289-1.10643299-.39462915-.368811-.59194373-1.10643298-.7892583-1.84405498 0-.73762199-.19731458-1.47524398-.19731458-2.39727147 0-1.47524399.19731458-2.76608247.39462915-3.50370446.19731458-.9220275.78925831-1.84405499 1.57851662-2.58167698.98657288-.73762199 2.36777492-1.65964948 4.53823527-2.76608247 2.17046034-.92202749 4.53823527-2.02846048 7.30063935-2.76608247 2.76240407-.92202749 5.9194373-1.65964948 9.07647053-2.21286598 3.35434781-.55321649 6.51138104-.92202749 9.86572885-.92202749 6.31406646 0 11.64156004.737622 15.98248074 2.02846048 4.34092069 1.29083849 7.89258307 3.31929897 10.65498715 5.90097594 2.5650895 2.39727148 4.53823527 5.71657044 5.72212273 9.4046804 1.38120204 3.87251546 1.97314577 8.29824741 1.97314577 13.27719586v54.58402742Zm-15.78516616-36.8810996h-13.61470581c-4.3409207 0-8.28721224.1844055-11.44424547.92202748-3.15703323.737622-5.9194373 1.65964949-7.89258307 3.13489347-2.17046035 1.29083849-3.74897697 2.95048797-4.73554985 4.79454295-.98657289 1.84405498-1.57851662 4.05692096-1.57851662 6.63859793 0 4.05692096 1.57851662 7.56062542 4.3409207 9.9578969 2.95971865 2.58167697 6.90601019 3.68810996 12.03618919 3.68810996 4.14360612 0 8.08989765-.9220275 11.64156004-2.95048797 3.55166238-2.02846048 7.30063935-4.97894845 11.24693089-9.0358694v-17.14971133ZM943.29360597 135.20560102c0 5.90097594-.98657288 11.06432988-2.95971865 15.85887283-2.17046035 4.61013746-5.130179 8.66705841-8.87915597 11.98635738-3.94629154 3.31929896-8.4845268 5.71657044-14.00933496 7.56062542-5.72212273 1.84405498-12.23350377 2.76608247-19.92877227 2.76608247h-14.20664954v41.86004806c0 .55321649-.19731458.92202749-.39462916 1.29083848-.39462915.368811-.7892583.737622-1.38120203.9220275-.59194374.18440549-1.38120204.36881099-2.5650895.55321649-.98657289.1844055-2.36777493.1844055-3.94629154.1844055-1.57851662 0-2.95971866 0-3.94629154-.1844055-1.18388747-.1844055-1.97314577-.368811-2.5650895-.5532165-.59194373-.1844055-1.18388747-.5532165-1.38120204-.92202749-.19731458-.368811-.39462916-.737622-.39462916-1.29083848V107.7291818c0-2.39727147.59194373-4.05692095 1.97314577-5.16335394 1.38120204-.9220275 2.95971866-1.47524399 4.53823527-1.47524399h26.6374679c2.76240407 0 5.32749357.1844055 7.89258307.368811 2.36777492.1844055 5.32749358.5532165 8.68184139 1.29083848 3.3543478.737622 6.90601019 2.02846048 10.260358 3.87251546 3.55166238 1.84405498 6.51138104 4.24132646 9.07647054 7.00740893 2.36777492 2.76608247 4.14360611 5.90097594 5.52480815 9.5890859 1.38120204 3.68810996 1.97314577 7.56062542 1.97314577 11.98635737Zm-17.36368277 1.29083849c0-4.79454295-.98657289-8.66705841-2.95971866-11.80195188-1.77583119-3.31929896-4.14360611-5.71657044-6.90601019-7.19181442-2.76240408-1.47524399-5.72212273-2.58167697-8.68184138-2.95048797-2.95971866-.368811-5.91943731-.737622-8.68184139-.737622h-15.390537v46.83899651h14.99590785c4.93286442 0 9.07647054-.5532165 12.43081834-1.84405498 3.35434781-1.10643299 6.11675189-2.76608247 8.28721224-4.97894845 2.36777492-2.21286597 3.94629153-4.61013745 5.130179-7.56062542 1.18388746-3.13489346 1.77583119-6.26978693 1.77583119-9.7734914ZM805.70773578 171.34907864c0 2.39727147-.59194373 4.05692096-1.97314577 4.97894845-1.18388746.92202749-2.76240408 1.47524398-4.3409207 1.47524398h-57.02391273c0 4.61013745.39462915 8.66705841 1.38120204 12.17076287.98657288 3.68810996 2.5650895 6.63859793 4.93286442 9.2202749 2.17046035 2.58167698 5.130179 4.61013746 8.68184138 6.08538144 3.74897697 1.29083849 8.08989766 2.02846048 13.41739124 2.02846048 4.14360611 0 7.6952685-.368811 11.0496163-.9220275 3.15703324-.73762198 5.91943732-1.47524398 8.28721224-2.21286597 2.36777492-.73762199 4.3409207-1.47524398 5.72212273-2.02846048 1.57851662-.73762199 2.76240408-.92202749 3.55166239-.92202749.39462915 0 .7892583 0 1.18388746.1844055.39462915.1844055.59194373.5532165.7892583.9220275.19731458.55321649.39462916 1.10643298.39462916 1.84405497.19731458.737622.19731458 1.65964948.19731458 2.76608247v2.02846048c-.19731458.5532165-.19731458 1.10643299-.39462916 1.47524399 0 .55321649-.19731458.92202749-.39462915 1.29083848-.19731458.368811-.59194373.737622-.78925831.9220275-.39462915.36881099-1.38120204.92202748-3.15703323 1.65964948-1.7758312.73762199-3.94629154 1.47524398-6.70869562 2.21286597-2.76240407.737622-6.11675188 1.47524399-9.66841427 2.02846048-3.55166238.5532165-7.49795392.737622-11.64156004.737622-7.10332477 0-13.41739123-.9220275-18.7448848-2.76608248-5.32749359-1.84405498-9.86572886-4.61013745-13.41739124-8.29824741-3.74897696-3.68810996-6.51138104-8.29824741-8.28721223-13.64600686-1.97314577-5.53216494-2.95971866-11.98635737-2.95971866-19.3625773 0-7.00740892.98657289-13.27719585 2.95971866-18.8093608 1.97314577-5.53216493 4.73554984-10.14230239 8.28721223-14.01481784 3.74897696-3.87251546 8.08989765-7.00740893 13.22007665-9.0358694 5.130179-2.02846049 10.85230174-3.13489348 17.1663682-3.13489348 6.9060102 0 12.62813292 1.106433 17.36368277 3.13489347 4.93286442 2.02846048 8.87915596 4.79454295 11.83887462 8.29824741 3.15703323 3.31929897 5.32749358 7.37621993 6.9060102 12.17076287 1.38120203 4.61013746 2.17046034 9.5890859 2.17046034 14.75243985v2.76608247Zm-15.98248074-4.42573195c.19731458-7.74503092-1.77583119-13.83041236-5.72212273-18.4405498-3.74897696-4.42573196-9.66841427-6.63859794-17.36368277-6.63859794-3.94629154 0-7.30063935.737622-10.260358 2.21286598-2.95971865 1.29083848-5.52480815 3.13489346-7.49795392 5.34775944-1.97314577 2.39727148-3.55166239 4.97894845-4.73554985 8.11384192-.98657289 2.95048796-1.57851662 6.08538143-1.7758312 9.4046804h47.35549847ZM707.54556188 215.42199267c0 .368811 0 .9220275-.39462916 1.106433-.19731457.36881099-.59194373.73762198-1.18388746.92202748s-1.38120204.368811-2.36777492.5532165c-.98657289.1844055-2.36777493.1844055-3.94629154.1844055-1.57851662 0-2.95971866 0-3.94629154-.1844055-.98657288-.1844055-1.7758312-.368811-2.36777492-.5532165-.59194373-.1844055-.98657289-.5532165-1.38120204-.92202749-.19731458-.1844055-.19731458-.737622-.19731458-1.10643299V95.00520245c0-.368811 0-.737622.19731458-1.106433.39462915-.36881099.7892583-.73762198 1.38120204-.92202748.59194373-.368811 1.38120204-.5532165 2.36777492-.5532165.98657288-.1844055 2.36777492-.1844055 3.94629154-.1844055 1.57851661 0 2.95971865 0 3.94629154.1844055.98657288 0 1.7758312.1844055 2.36777492.5532165.59194373.1844055.98657289.5532165 1.18388746.92202749.39462916.368811.39462916.737622.39462916 1.10643299v120.41679022ZM673.135542 173.56194462c0 7.19181442-.7892583 13.46160135-2.36777491 19.1781718-1.7758312 5.53216493-4.14360612 10.32670788-7.30063935 14.38362884-3.15703323 3.87251546-7.10332477 6.82300343-11.83887462 9.0358694-4.73554985 2.02846048-10.06304342 3.13489347-15.98248073 3.13489347-2.5650895 0-4.93286443-.1844055-7.30063935-.73762199-2.17046035-.368811-4.14360611-1.10643299-6.31406646-2.21286598-2.17046035-.92202749-4.14360612-2.21286597-6.31406646-3.87251546-1.97314577-1.47524398-4.14360612-3.31929896-6.51138104-5.53216494v40.56920957c0 .5532165 0 .9220275-.39462916 1.29083849-.19731457.368811-.59194373.737622-1.18388746.9220275-.59194373.18440549-1.38120204.36881099-2.36777492.55321648-.98657289 0-2.36777493.1844055-3.94629154.1844055-1.57851662 0-2.95971865-.1844055-3.94629154-.1844055-.98657288-.1844055-1.7758312-.368811-2.36777492-.55321649-.59194373-.1844055-.98657289-.5532165-1.38120204-.92202749-.19731458-.368811-.19731458-.737622-.19731458-1.29083849v-113.2249758c0-.5532165 0-.92202749.19731458-1.29083848.19731458-.368811.59194373-.5532165 1.18388746-.737622.59194373-.368811 1.38120204-.5532165 2.17046035-.5532165.98657288-.18440549 1.97314577-.18440549 3.3543478-.18440549 1.38120204 0 2.36777493 0 3.35434781.1844055.78925831 0 1.57851662.1844055 2.17046035.5532165.59194373.1844055.98657288.36881099 1.18388746.73762199.19731458.368811.39462915.73762199.39462915 1.29083848v10.87992439c2.5650895-2.39727148 5.130179-4.61013745 7.49795393-6.45419244 2.36777492-1.84405498 4.93286442-3.50370446 7.30063935-4.61013745 2.5650895-1.29083848 5.130179-2.21286597 7.6952685-2.95048797 2.5650895-.55321649 5.32749357-.92202749 8.28721223-.92202749 6.31406646 0 11.64156004 1.2908385 15.98248073 3.50370447 4.53823527 2.21286597 8.08989766 5.34775944 10.85230173 9.4046804 2.76240408 3.87251546 4.93286443 8.4826529 6.11675189 13.83041235 1.38120204 5.16335395 1.97314577 10.69551889 1.97314577 16.59649483Zm-16.37710988 1.84405498c0-4.24132646-.39462915-8.29824742-1.18388746-12.17076287-.59194373-3.87251546-1.7758312-7.19181443-3.3543478-10.3267079-1.7758312-2.95048796-3.94629155-5.34775944-6.70869562-7.19181442-2.76240408-1.65964948-6.31406647-2.58167697-10.45767258-2.58167697-1.97314577 0-3.94629154.1844055-6.11675189.73762199-1.97314577.5532165-3.94629154 1.47524398-5.9194373 2.76608247-2.17046035 1.29083849-4.3409207 2.76608247-6.51138105 4.79454295-2.36777492 2.02846048-4.73554984 4.61013745-7.30063934 7.56062542v32.08655666c4.53823527 4.97894845 8.68184138 8.8514639 12.62813292 11.43314088 3.94629154 2.76608247 8.08989766 4.05692096 12.43081835 4.05692096 3.94629154 0 7.30063935-.9220275 10.260358-2.76608247 2.76240408-1.65964949 5.130179-4.05692096 6.9060102-7.19181443 1.77583119-2.95048797 3.15703323-6.26978693 3.94629153-9.9578969.78925831-3.87251545 1.38120204-7.56062541 1.38120204-11.24873537ZM569.77682614 215.42199267c0 .368811-.19731457.9220275-.39462915 1.106433-.39462916.36881099-.7892583.73762198-1.38120204.92202748-.59194373.1844055-1.38120204.368811-2.36777492.5532165-.98657289.1844055-2.36777493.1844055-3.74897697.1844055-1.77583119 0-2.95971865 0-3.94629153-.1844055-1.18388747-.1844055-1.97314577-.368811-2.5650895-.5532165-.59194374-.1844055-.98657289-.5532165-1.38120204-.92202749-.19731458-.1844055-.19731458-.737622-.19731458-1.10643299V166.1857247c0-3.50370446-.39462915-6.63859793-.98657289-9.4046804-.7892583-2.76608247-1.77583119-5.34775944-3.15703323-7.37621992-1.38120203-2.02846048-3.15703323-3.50370446-5.32749357-4.61013745-2.17046035-1.10643299-4.73554985-1.65964948-7.6952685-1.65964948-3.74897697 0-7.49795393 1.29083848-11.04961631 4.05692095-3.74897697 2.58167698-7.89258308 6.45419244-12.23350378 11.61754638v56.6124879c0 .368811-.19731457.9220275-.39462915 1.106433-.19731458.36881099-.7892583.73762198-1.38120204.92202748-.59194373.1844055-1.38120204.368811-2.36777492.5532165-.98657289.1844055-2.36777492.1844055-3.94629154.1844055-1.38120204 0-2.76240408 0-3.74897696-.1844055-.98657289-.1844055-1.7758312-.368811-2.5650895-.5532165-.59194373-.1844055-.98657289-.5532165-1.18388746-.92202749-.19731458-.1844055-.39462916-.737622-.39462916-1.10643299V166.1857247c0-3.50370446-.19731457-6.63859793-.98657288-9.4046804-.78925831-2.76608247-1.7758312-5.34775944-3.15703323-7.37621992-1.38120204-2.02846048-3.15703324-3.50370446-5.32749358-4.61013745-2.17046035-1.10643299-4.73554985-1.65964948-7.6952685-1.65964948-3.74897696 0-7.30063935 1.29083848-11.04961631 4.05692095-3.74897696 2.58167698-7.89258308 6.45419244-12.23350377 11.61754638v56.6124879c0 .368811 0 .9220275-.39462916 1.106433-.19731457.36881099-.59194373.73762198-1.18388746.92202748s-1.38120204.368811-2.36777492.5532165c-.98657289.1844055-2.36777493.1844055-3.94629154.1844055-1.57851662 0-2.95971866 0-3.94629154-.1844055-.98657288-.1844055-1.7758312-.368811-2.36777492-.5532165-.59194373-.1844055-.98657289-.5532165-1.38120204-.92202749-.19731458-.1844055-.19731458-.737622-.19731458-1.10643299v-81.13841914c0-.368811 0-.737622.19731458-1.10643299.19731458-.368811.59194373-.73762199 1.18388746-.92202749.59194373-.368811 1.38120204-.5532165 2.17046035-.5532165.98657288-.18440549 2.17046034-.18440549 3.55166238-.18440549 1.38120204 0 2.5650895 0 3.55166239.1844055.98657288 0 1.77583119.1844055 2.17046034.5532165.59194373.1844055.98657289.55321649 1.18388746.92202748.19731458.368811.19731458.737622.19731458 1.106433v10.69551888c4.93286443-4.97894845 9.66841427-8.66705841 14.20664954-11.06432988 4.73554985-2.39727148 9.27378512-3.68810997 14.00933497-3.68810997 3.55166238 0 6.90601019.368811 9.66841427 1.2908385 2.95971865.73762198 5.32749357 1.84405497 7.49795392 3.31929896 2.36777492 1.29083848 4.14360612 2.95048796 5.72212273 4.97894844 1.57851662 1.84405498 2.76240408 4.05692096 3.74897696 6.45419243 2.95971866-2.95048796 5.72212274-5.34775944 8.28721224-7.37621992 2.5650895-2.02846048 5.130179-3.68810996 7.49795392-4.97894844 2.36777492-1.2908385 4.73554985-2.21286598 7.10332477-2.76608248 2.17046035-.55321649 4.53823527-.92202749 6.9060102-.92202749 5.52480815 0 10.260358.9220275 14.00933496 2.76608248 3.74897696 1.84405498 6.90601019 4.24132645 9.27378511 7.37621992 2.17046035 3.13489346 3.94629154 6.63859793 4.93286443 10.69551888.98657288 4.24132646 1.57851661 8.48265291 1.57851661 13.09279037v51.26472845ZM416.95851443 215.42199267c0 .368811 0 .9220275-.39462916 1.106433-.19731457.36881099-.59194373.73762198-1.18388746.92202748s-1.38120204.368811-2.36777492.5532165c-.98657289.1844055-2.36777493.1844055-3.94629154.1844055-1.57851662 0-2.95971866 0-3.94629154-.1844055-.98657288-.1844055-1.7758312-.368811-2.36777492-.5532165-.59194373-.1844055-.98657289-.5532165-1.38120204-.92202749-.19731458-.1844055-.19731458-.737622-.19731458-1.10643299v-81.13841914c0-.368811 0-.737622.19731458-1.10643299.39462915-.368811.7892583-.73762199 1.38120204-.92202749.59194373-.1844055 1.38120204-.368811 2.36777492-.5532165.98657288 0 2.36777492-.18440549 3.94629154-.18440549 1.57851661 0 2.95971865.1844055 3.94629154.1844055.98657288.1844055 1.7758312.368811 2.36777492.5532165.59194373.1844055.98657289.55321649 1.18388746.92202748.39462916.368811.39462916.737622.39462916 1.106433v81.13841913Zm1.97314577-108.43043285c0 3.50370446-.78925831 5.90097594-2.17046035 7.00740893-1.38120204 1.29083848-4.14360612 2.02846047-7.89258308 2.02846047-3.74897696 0-6.31406646-.73762199-7.6952685-1.84405498-1.38120204-1.29083848-1.97314577-3.68810996-1.97314577-7.00740892 0-3.50370446.78925831-5.90097594 2.17046035-7.19181443 1.38120204-1.29083848 3.94629154-1.84405498 7.6952685-1.84405498 3.74897696 0 6.31406646.5532165 7.6952685 1.84405498 1.38120204 1.29083849 2.17046035 3.50370447 2.17046035 7.00740893ZM384.5055246 184.9950855c0 5.34775944-.98657288 10.32670789-3.15703323 14.56803434-2.17046035 4.24132646-5.130179 7.92943642-8.87915596 10.87992439-3.94629154 2.95048796-8.48452681 5.16335394-13.61470581 6.63859793-5.130179 1.47524398-10.65498716 2.21286597-16.77173904 2.21286597-4.14360612 0-7.89258308-.368811-11.44424547-.92202749-3.55166238-.73762199-6.9060102-1.47524398-9.66841427-2.39727147-2.76240408-.9220275-5.130179-2.02846048-6.9060102-2.95048797-1.97314576-1.10643299-3.3543478-2.02846048-3.94629153-2.76608247-.7892583-.5532165-1.38120204-1.47524399-1.7758312-2.58167697-.19731457-1.106433-.39462915-2.76608248-.39462915-4.61013746 0-1.29083848 0-2.39727147.19731458-3.13489346 0-.9220275.19731458-1.65964949.59194373-2.21286598.19731458-.5532165.59194373-.92202749.7892583-1.10643299.39462916-.1844055.9865729-.368811 1.38120205-.368811.98657288 0 2.17046034.5532165 3.94629154 1.65964949 1.57851661.92202749 3.74897696 2.02846048 6.31406646 3.31929896 2.5650895 1.106433 5.52480815 2.21286598 9.27378512 3.31929897 3.55166238 1.10643299 7.6952685 1.47524398 12.43081834 1.47524398 3.74897697 0 6.9060102-.368811 9.86572885-1.29083848 3.15703323-.9220275 5.72212273-2.21286598 7.89258308-3.87251546 1.97314577-1.65964949 3.74897696-3.68810996 4.93286442-6.08538144 1.18388746-2.39727147 1.57851662-4.97894845 1.57851662-8.11384191 0-3.31929897-.78925831-6.08538144-2.36777493-8.48265291-1.57851661-2.39727148-3.74897696-4.42573196-6.31406646-6.08538144-2.5650895-1.84405498-5.72212273-3.50370446-9.07647054-4.97894845-3.3543478-1.47524398-6.70869561-2.95048796-10.260358-4.42573195-3.55166238-1.47524398-6.9060102-3.31929896-10.260358-5.16335394-3.3543478-1.84405498-6.31406646-4.05692096-9.07647054-6.45419244-2.5650895-2.58167697-4.73554985-5.53216494-6.31406646-8.8514639-1.7758312-3.50370447-2.5650895-7.56062542-2.5650895-12.35516837 0-4.79454295.98657288-9.0358694 2.95971865-12.90838487 1.7758312-3.87251545 4.53823527-7.00740892 7.89258308-9.5890859 3.3543478-2.58167697 7.30063935-4.61013745 12.0361892-5.90097593 4.53823526-1.29083849 9.66841426-2.02846048 14.99590784-2.02846048 2.76240408 0 5.52480816.1844055 8.28721223.737622 2.95971866.36881099 5.52480816.92202748 7.89258308 1.65964947 2.5650895.737622 4.73554985 1.65964949 6.70869562 2.58167698 1.97314577.92202749 3.15703323 1.65964948 3.74897696 2.21286597.59194373.5532165.98657288 1.106433 1.18388746 1.47524399.19731458.1844055.39462916.737622.59194373 1.10643299 0 .5532165.19731458 1.10643298.19731458 1.84405498.19731458.73762199.19731458 1.65964948.19731458 2.76608247 0 1.10643299-.19731458 2.21286597-.19731458 2.95048797-.19731458.92202749-.19731458 1.65964948-.39462915 2.21286597-.19731458.5532165-.59194374.9220275-.78925831 1.106433-.39462916.36881099-.78925831.55321649-1.18388746.55321649-.78925831 0-1.97314577-.5532165-3.35434781-1.2908385-1.57851662-.92202748-3.35434781-1.84405497-5.52480816-2.95048796-2.17046034-.92202749-4.93286442-1.84405498-7.89258307-2.76608247-2.95971866-.92202749-6.31406647-1.29083849-10.06304343-1.29083849-3.3543478 0-6.51138104.368811-9.07647054 1.29083849-2.5650895.92202749-4.53823527 2.02846048-6.31406646 3.50370446-1.57851662 1.29083849-2.95971866 3.13489347-3.74897696 4.97894845-.78925831 2.02846048-1.18388746 4.24132646-1.18388746 6.45419243 0 3.13489347.7892583 5.90097594 2.36777492 8.29824741 1.57851661 2.39727148 3.74897696 4.42573196 6.31406646 6.26978694 2.76240408 1.65964948 5.72212273 3.31929896 9.27378512 4.97894845 3.3543478 1.47524398 6.70869561 2.95048796 10.260358 4.42573195 3.55166238 1.65964948 7.10332477 3.31929896 10.45767258 5.16335394 3.3543478 1.65964949 6.51138104 3.87251546 9.07647054 6.45419244 2.76240407 2.39727147 4.93286442 5.34775944 6.51138104 8.8514639 1.57851661 3.31929897 2.36777492 7.37621992 2.36777492 11.98635738ZM257.42259627 135.20560102c0 5.90097594-.98657288 11.06432988-2.95971865 15.85887283-2.17046035 4.61013746-5.130179 8.66705841-8.87915597 11.98635738-3.94629154 3.31929896-8.4845268 5.71657044-14.00933496 7.56062542-5.72212273 1.84405498-12.23350377 2.76608247-19.92877227 2.76608247h-14.20664954v41.86004806c0 .55321649-.19731458.92202749-.39462916 1.29083848-.39462915.368811-.7892583.737622-1.38120203.9220275-.59194374.18440549-1.38120204.36881099-2.5650895.55321649-.98657289.1844055-2.36777493.1844055-3.94629154.1844055-1.57851662 0-2.95971866 0-3.94629154-.1844055-1.18388747-.1844055-1.97314577-.368811-2.5650895-.5532165-.59194373-.1844055-1.18388747-.5532165-1.38120204-.92202749-.19731458-.368811-.39462916-.737622-.39462916-1.29083848V107.7291818c0-2.39727147.59194373-4.05692095 1.97314577-5.16335394 1.38120204-.9220275 2.95971866-1.47524399 4.53823527-1.47524399h26.6374679c2.76240407 0 5.32749357.1844055 7.89258307.368811 2.36777492.1844055 5.32749358.5532165 8.68184139 1.29083848 3.3543478.737622 6.90601019 2.02846048 10.260358 3.87251546 3.55166238 1.84405498 6.51138104 4.24132646 9.07647054 7.00740893 2.36777492 2.76608247 4.14360611 5.90097594 5.52480815 9.5890859 1.38120204 3.68810996 1.97314577 7.56062542 1.97314577 11.98635737Zm-17.36368277 1.29083849c0-4.79454295-.98657289-8.66705841-2.95971866-11.80195188-1.77583119-3.31929896-4.14360611-5.71657044-6.90601019-7.19181442-2.76240408-1.47524399-5.72212273-2.58167697-8.68184138-2.95048797-2.95971866-.368811-5.91943731-.737622-8.68184139-.737622h-15.390537v46.83899651h14.99590785c4.93286442 0 9.07647054-.5532165 12.43081834-1.84405498 3.35434781-1.10643299 6.11675189-2.76608247 8.28721224-4.97894845 2.36777492-2.21286597 3.94629153-4.61013745 5.130179-7.56062542 1.18388746-3.13489346 1.77583119-6.26978693 1.77583119-9.7734914ZM130.0272268 214.13115419c-.19731459.92202749-.59194374 1.65964948-1.18388747 2.02846048-.39462916.55321649-1.18388746.92202749-2.17046035 1.29083848-.7892583.1844055-1.97314577.368811-3.15703323.5532165-1.38120204.1844055-2.95971865.1844055-4.93286442.1844055-1.97314577 0-3.74897696 0-5.130179-.1844055-1.38120204-.1844055-2.5650895-.368811-3.35434781-.5532165-.98657289-.368811-1.57851662-.73762199-1.97314577-1.29083848-.59194373-.368811-.7892583-1.106433-1.18388746-2.02846048l-26.04552416-87.96142257h-.19731458l-24.07237838 87.96142257c-.19731458.92202749-.59194374 1.65964948-.98657289 2.02846048-.39462915.55321649-1.18388746.92202749-1.97314577 1.29083848-.7892583.1844055-1.7758312.368811-3.15703323.5532165-1.38120204.1844055-2.95971865.1844055-5.130179.1844055-1.97314577 0-3.74897696 0-5.32749358-.1844055-1.38120204-.1844055-2.5650895-.368811-3.3543478-.5532165-.9865729-.368811-1.57851662-.73762199-2.17046035-1.29083848-.39462916-.368811-.78925831-1.106433-.98657289-2.02846048L.58886431 106.62274882c-.39462915-1.47524398-.59194373-2.39727147-.59194373-3.31929896 0-.737622.19731458-1.29083849.7892583-1.65964948.59194374-.5532165 1.38120205-.737622 2.5650895-.9220275 1.38120205 0 2.95971866-.1844055 4.93286443-.1844055 1.97314577 0 3.55166239 0 4.73554985.1844055 1.18388746 0 2.17046035.1844055 2.76240408.5532165.59194373.1844055.98657288.5532165 1.18388746.9220275.19731458.36881099.39462915.92202748.59194373 1.65964947l28.01866993 97.55050847 26.63746788-97.36610297c.19731458-.737622.39462916-1.29083849.78925831-1.65964948.19731458-.5532165.59194373-.9220275 1.38120204-1.10643299.59194373-.1844055 1.57851662-.368811 2.76240408-.5532165 1.18388746 0 2.76240408-.1844055 4.53823527-.1844055 1.77583119 0 3.3543478.1844055 4.3409207.1844055.98657288.1844055 1.97314576.368811 2.5650895.5532165.59194372.1844055 1.18388745.5532165 1.38120203 1.10643299.39462915.368811.59194373.92202749.7892583 1.65964948l28.61061367 97.36610297h.19731457l27.4267262-97.55050847c.19731458-.5532165.39462915-1.10643299.59194373-1.47524398.19731458-.5532165.59194373-.9220275 1.18388746-1.10643299.59194373-.1844055 1.38120204-.368811 2.5650895-.5532165 1.18388746 0 2.5650895-.1844055 4.53823527-.1844055 1.97314577 0 3.3543478.1844055 4.53823527.1844055 1.18388746.1844055 1.97314577.5532165 2.36777492.9220275.59194374.368811.78925831 1.10643298.78925831 1.84405498 0 .73762199-.19731457 1.84405498-.59194373 3.13489346L130.0272268 214.1311542Z" fill="#428bca" fill-rule="nonzero"/></svg>