<svg width="311" height="41" fill="none" xmlns="http://www.w3.org/2000/svg"><path fill-rule="evenodd" clip-rule="evenodd" d="M2.352 0C1.052 0 0 1.02 0 2.277v30.746C0 34.281 1.053 35.3 2.352 35.3h28.806c.975 0 1.764-.764 1.764-1.708 0-.943-.79-1.708-1.763-1.708H5.29c-.974 0-1.764-.765-1.764-1.708v-17.08c0-.944.79-1.709 1.764-1.709h44.092c1.299 0 2.352-1.02 2.352-2.277V2.277C51.735 1.02 50.682 0 49.383 0H2.352Zm55.262 24.198h-1.47v-1.993c0-4.088-3.422-7.402-7.643-7.402-4.22 0-7.642 3.314-7.642 7.402v1.993H38.8c-1.299 0-2.352 1.02-2.352 2.277v11.387c0 1.258 1.053 2.278 2.352 2.278h18.813c1.299 0 2.351-1.02 2.351-2.278V26.475c0-1.258-1.053-2.277-2.351-2.277Zm-4.997-1.993v1.993h-8.23v-1.993c0-2.201 1.842-3.985 4.114-3.985 2.273 0 4.116 1.784 4.116 3.985ZM8.23 20.497c0-.629.526-1.139 1.175-1.139H28.22c.65 0 1.176.51 1.176 1.139s-.527 1.139-1.176 1.139H9.406c-.649 0-1.175-.51-1.175-1.139Zm0 5.124c0-.629.526-1.138 1.175-1.138h7.055c.65 0 1.176.51 1.176 1.138 0 .63-.527 1.139-1.176 1.139H9.406c-.649 0-1.175-.51-1.175-1.139Zm31.158 11.672V27.045h17.637v10.248H39.389Z" fill="#fff"/><path d="M81.08 30.745h5.288l5.41-17.186 5.596 17.187h5.289l7.84-24.29h-5.288l-5.289 17.956L94.7 6.457h-5.842L83.785 24.38 78.528 6.457h-5.289l7.84 24.288Zm31.511 0h4.796v-8.793h6.456c5.319 0 8.302-3.228 8.302-7.963 0-4.735-2.983-7.532-8.302-7.532h-11.252v24.288Zm4.796-13.405V11.1h5.288c2.952 0 4.52 1.168 4.52 3.104 0 1.968-1.507 3.136-4.366 3.136h-5.442Zm35.473 13.897c6.303 0 10.023-3.197 10.023-7.747 0-10.3-14.789-4.581-14.789-10.085 0-1.906 1.599-3.013 4.52-3.013 2.859 0 4.519 1.322 4.704 3.567h5.288c0-4.92-4.089-7.994-9.9-7.994-5.872 0-9.562 2.89-9.562 7.502 0 10.268 14.758 4.642 14.758 10.084 0 1.998-1.752 3.26-4.919 3.26-3.228 0-5.073-1.6-5.165-4.305h-5.381c0 5.503 4.274 8.731 10.423 8.731Zm15.137-18.447c1.66 0 2.89-1.23 2.89-2.89 0-1.66-1.23-2.829-2.89-2.829-1.691 0-2.921 1.169-2.921 2.83 0 1.66 1.23 2.89 2.921 2.89Zm-2.306 17.956h4.581V14.758h-4.581v15.988Zm7.696-.001h4.55v-8.178c0-2.644 1.384-4.366 3.597-4.366 1.968 0 3.136 1.415 3.136 3.751v8.793h4.612v-8.178c0-2.644 1.384-4.366 3.597-4.366 1.968 0 3.136 1.415 3.136 3.751v8.793h4.643v-9.039c0-4.888-1.968-7.44-5.965-7.44-2.459 0-4.642.86-6.21 3.044-.892-2.03-2.583-3.044-5.135-3.044-2.552 0-4.335 1.076-5.411 2.798v-2.306h-4.55v15.988Zm30.183 6.15h4.551v-8.24c1.106 1.63 2.859 2.582 5.38 2.582 4.028 0 6.887-3.504 6.887-8.424 0-5.011-2.859-8.547-6.887-8.547-2.521 0-4.274.953-5.38 2.583v-2.091h-4.551v22.137Zm8.363-9.593c-2.244 0-3.843-1.875-3.843-4.52 0-2.674 1.599-4.58 3.843-4.58 2.275 0 3.874 1.906 3.874 4.58 0 2.645-1.599 4.52-3.874 4.52Zm10.651 3.443h4.551V6.457h-4.551v24.288Zm15.443.492c3.905 0 6.918-2.213 7.41-5.688h-4.551c-.184 1.107-1.229 1.968-2.828 1.968-2.368 0-3.536-1.353-3.751-3.412h11.222v-1.476c0-5.104-3.259-8.363-7.502-8.363-4.919 0-8.363 3.505-8.363 8.455 0 4.98 3.444 8.516 8.363 8.516Zm-3.689-9.93c.276-1.845 1.352-3.106 3.505-3.106 1.937 0 3.013 1.322 3.105 3.106h-6.61Zm22.358 9.438h4.796v-8.793h6.457c5.319 0 8.301-3.228 8.301-7.963 0-4.735-2.982-7.532-8.301-7.532h-11.253v24.288Zm4.796-13.405V11.1h5.288c2.952 0 4.52 1.168 4.52 3.104 0 1.968-1.507 3.136-4.366 3.136h-5.442Zm20.704 13.897c2.736 0 4.458-1.23 5.257-3.228.4 2.183 2.152 3.413 5.688 2.613v-3.259c-1.261.123-1.507-.338-1.507-1.66v-5.411c0-3.782-2.644-6.026-7.317-6.026-4.612 0-7.317 2.275-7.317 6.118h4.488c0-1.383 1.015-2.183 2.768-2.183 1.906 0 2.859.769 2.828 2.091v.492l-3.659.43c-4.519.523-7.071 2.368-7.071 5.258 0 2.429 1.722 4.765 5.842 4.765Zm.922-3.382c-1.414 0-2.183-.645-2.183-1.63 0-1.167 1.507-1.629 4.397-1.998l1.568-.153c-.277 2.152-1.599 3.781-3.782 3.781Zm11.126 9.04h1.967c3.936 0 6.641-1.077 8.271-4.981L311 14.758h-4.766l-3.996 10.669-4.797-10.67h-4.796l7.225 16.234c-1.014 1.446-2.06 1.907-4.058 1.876h-1.568v4.028Z" fill="#fff"/></svg>