<svg width="141" height="94" viewBox="0 0 141 94" fill="none" xmlns="http://www.w3.org/2000/svg">
<path fill-rule="evenodd" clip-rule="evenodd" d="M5.50695 0C2.46555 0 0 2.38782 0 5.33333V21.3333V77.3334C0 80.2789 2.46555 82.6667 5.50696 82.6667H6.88369H71.5904H72.9671C75.2482 82.6667 77.0974 80.8758 77.0974 78.6667C77.0974 76.4576 75.2482 74.6667 72.9671 74.6667H12.3906C10.1096 74.6667 8.26043 72.8758 8.26043 70.6667V30.6667C8.26043 28.4575 10.1096 26.6667 12.3906 26.6667H115.646C118.687 26.6667 121.153 24.2789 121.153 21.3333V5.33333C121.153 2.38782 118.687 0 115.646 0H5.50695ZM134.92 56.6667H131.478V52C131.478 42.427 123.465 34.6666 113.581 34.6666C103.696 34.6666 95.6833 42.427 95.6833 52V56.6667H90.8647C87.8233 56.6667 85.3577 59.0545 85.3577 62V88.6667C85.3577 91.6122 87.8233 94 90.8647 94H134.92C137.962 94 140.427 91.6122 140.427 88.6667V62C140.427 59.0545 137.962 56.6667 134.92 56.6667ZM123.218 52V56.6667H103.944V52C103.944 46.8453 108.258 42.6666 113.581 42.6666C118.903 42.6666 123.218 46.8453 123.218 52ZM19.2745 48C19.2745 46.5272 20.5073 45.3333 22.028 45.3333L66.0836 45.3333C67.6043 45.3333 68.8371 46.5272 68.8371 48C68.8371 49.4728 67.6043 50.6667 66.0836 50.6667L22.028 50.6667C20.5073 50.6667 19.2745 49.4728 19.2745 48ZM19.2745 60C19.2745 58.5272 20.5073 57.3333 22.028 57.3333H38.5488C40.0695 57.3333 41.3023 58.5272 41.3023 60C41.3023 61.4727 40.0695 62.6666 38.5488 62.6666H22.028C20.5073 62.6666 19.2745 61.4727 19.2745 60ZM92.2414 87.3333V63.3333H133.544V87.3333H92.2414Z" fill="white"/>
</svg>
